<svg width="1440" height="1253" viewBox="0 0 1440 1253" fill="none" xmlns="http://www.w3.org/2000/svg">
<g filter="url(#filter0_d_1512_180)">
<path d="M1044.33 172.348C1037.36 199.491 1010.61 215.599 984.593 208.326C961.304 195.233 943.13 173.153 950.102 146.01C957.074 118.867 983.821 102.759 1009.84 110.032C1035.86 117.305 1045.94 144.263 1044.33 172.348Z" fill="#A0836F"/>
<path d="M1044.33 172.348C1037.36 199.491 1010.61 215.599 984.593 208.326C961.304 195.233 943.13 173.153 950.102 146.01C957.074 118.867 983.821 102.759 1009.84 110.032C1035.86 117.305 1045.94 144.263 1044.33 172.348Z" stroke="#5F4B3D"/>
<path d="M981.619 184.08C950.946 143.876 982.9 118.054 1005.03 109.351C933.301 109.804 944.575 186.173 973.829 198.01C987.662 210.663 1012.29 224.284 981.619 184.08Z" fill="#846853"/>
<ellipse cx="26.6009" cy="29.1772" rx="26.6009" ry="29.1772" transform="matrix(0.963088 0.269188 -0.248794 0.968556 981.078 123.726)" fill="#C6A195"/>
<path d="M985.383 133.532C959.681 146.987 971.103 179.619 983.914 187.729L999.286 173.263C978.514 155.811 1006.33 122.566 985.383 133.532Z" fill="#B59084"/>
<path d="M1167.74 205.531C1160.76 232.674 1176.34 260.611 1202.52 267.93C1229.12 268.78 1255.58 259.177 1262.56 232.034C1269.53 204.89 1253.96 176.953 1227.77 169.635C1201.59 162.316 1179.84 180.382 1167.74 205.531Z" fill="#A0836F"/>
<path d="M1167.74 205.531C1160.76 232.674 1176.34 260.611 1202.52 267.93C1229.12 268.78 1255.58 259.177 1262.56 232.034C1269.53 204.89 1253.96 176.953 1227.77 169.635C1201.59 162.316 1179.84 180.382 1167.74 205.531Z" stroke="#5F4B3D"/>
<path d="M1202.72 245.198C1172.2 205.015 1203.81 179.804 1225.87 171.071C1161.12 161.767 1165.81 247.336 1194.94 259.143C1208.71 271.785 1233.24 285.381 1202.72 245.198Z" fill="#846853"/>
<ellipse cx="29.9643" cy="30.4458" rx="29.9643" ry="30.4458" transform="matrix(0.963088 0.269188 -0.248794 0.968556 1193.41 181.755)" fill="#C6A195"/>
<path d="M1200.13 192.411C1172.67 206.301 1185.14 240.551 1198.94 249.138L1215.32 234.11C1192.92 215.682 1222.52 181.089 1200.13 192.411Z" fill="#B59084"/>
<path d="M1236.2 322.825C1228.18 374.037 1189.56 398.458 1059.76 370.247C946.893 335.766 913.918 286.199 934.944 238.622C975.962 145.807 1034.62 125.521 1116.72 148.469C1198.83 171.416 1234.07 203.278 1236.2 322.825Z" fill="#A0836F"/>
<path d="M1236.2 322.825C1228.18 374.037 1189.56 398.458 1059.76 370.247C946.893 335.766 913.918 286.199 934.944 238.622C975.962 145.807 1034.62 125.521 1116.72 148.469C1198.83 171.416 1234.07 203.278 1236.2 322.825Z" stroke="#846853"/>
<path d="M1056.68 140.907C1056.52 140.907 1056.36 140.908 1056.2 140.909C1049.38 141.081 1033.53 147.119 1013.78 168.506C988.492 195.894 965.107 251.397 961.35 266.019C957.836 279.7 957.598 294.296 972.731 314.654C987.423 334.42 1072.17 381.304 1184.59 378.269C1110.34 391.24 1019.42 357.03 975.896 332.401C932.369 307.772 928.308 274.379 930.911 256.045C933.514 237.711 956.072 196.363 982.849 168.657C1004.05 146.718 1040.25 141.037 1056.2 140.909C1056.36 140.905 1056.53 140.905 1056.68 140.907Z" fill="#846853"/>
<ellipse cx="34.8564" cy="31.7143" rx="34.8564" ry="31.7143" transform="matrix(0.963088 0.269188 -0.248794 0.968556 1049.68 271.958)" fill="#C6AA95"/>
<path d="M1097.54 304.326C1096.46 308.503 1087.36 307.079 1076.47 304.033C1065.57 300.987 1057.01 297.474 1058.08 293.297C1059.15 289.119 1068.25 290.544 1079.15 293.589C1090.05 296.635 1098.61 300.148 1097.54 304.326Z" fill="#5F4B3D"/>
<path d="M1138.27 280.911C1144.86 278.778 1160.33 277.536 1169.48 289.636" stroke="#5F4B3D" stroke-width="16.1998" stroke-linecap="round"/>
<path d="M1006.93 244.199C1013.52 242.065 1028.99 240.823 1038.15 252.923" stroke="#5F4B3D" stroke-width="16.1998" stroke-linecap="round"/>
<path d="M1086.97 325.831C1081.2 324.22 1072.24 321.715 1078.4 297.756" stroke="#5F4B3D" stroke-width="16.1998" stroke-linecap="round"/>
<path d="M1057.52 317.596C1063.51 319.271 1072.83 321.876 1078.99 297.917" stroke="#5F4B3D" stroke-width="16.1998" stroke-linecap="round"/>
<ellipse cx="29.3527" cy="26.9572" rx="29.3527" ry="26.9572" transform="matrix(0.963088 0.269188 -0.248794 0.968556 1167.16 296.231)" fill="#CD9F99"/>
<ellipse cx="7.86902" cy="10.3429" rx="7.86902" ry="10.3429" transform="matrix(-0.614425 0.779075 0.765033 0.656515 1043.55 220.545)" fill="#C6AA95"/>
<ellipse cx="7.86902" cy="10.3429" rx="7.86902" ry="10.3429" transform="matrix(0.158675 0.995161 -0.977224 0.169545 1147.25 249.532)" fill="#C6AA95"/>
<ellipse cx="29.3527" cy="26.9572" rx="29.3527" ry="26.9572" transform="matrix(0.963088 0.269188 -0.248794 0.968556 953.373 236.473)" fill="#CD9F99"/>
<path d="M970.131 243.14C965.945 253.919 957.824 278.914 961.472 293.395C930.742 272.369 951.717 243.114 970.131 243.14Z" fill="#C58D85"/>
<path d="M1228.95 260.174C1223.8 216.89 1197.5 188.765 1184.99 180.112L1190.51 175.024C1217.03 185.382 1230.99 234.959 1234.42 258.018L1228.95 260.174Z" fill="#927763" fill-opacity="0.3"/>
<path d="M967.31 198.894C992.521 164.097 1028.78 153.457 1043.76 152.487L1041.42 145.203C1013.49 140.344 977.634 175.996 963.613 194.177L967.31 198.894Z" fill="#927763" fill-opacity="0.3"/>
<path d="M1200.29 349.883C1195.17 346.324 1187.25 348.4 1183.93 349.883L1162.58 395.111C1176.34 432.183 1205.99 507.81 1214.52 513.741C1225.2 521.156 1238.72 525.604 1259.35 518.19C1279.98 510.776 1283.54 472.221 1252.23 424.027C1220.93 375.834 1206.7 354.332 1200.29 349.883Z" fill="#956039"/>
<path d="M1195.71 417.167C1197.37 425.255 1198.02 442.923 1198.48 450.384L1212.4 511.611C1227.64 523.887 1273.28 530.539 1274.67 492.989C1265.66 506.709 1253.2 508.876 1245.58 506.709C1235.88 506.709 1224.1 474.936 1221.33 459.772C1218.63 444.96 1193.63 407.058 1195.71 417.167Z" fill="#692E03"/>
<path d="M930.94 347.589C952.266 321.297 967.624 326.641 970.926 328.124C970.926 328.124 975.974 327.296 976.257 329.515C978.923 350.37 930.94 488.015 930.94 488.015C926.941 501.919 927.008 507.81 918.517 513.741C907.903 521.156 894.459 525.604 873.939 518.19C853.419 510.775 849.881 472.221 881.015 424.027C912.149 375.833 925.989 353.693 930.94 347.589Z" fill="#956039"/>
<path d="M884.457 450.656C893.341 429.852 928.647 370.806 942.759 346.969C942.065 346.006 963.04 326.12 957.595 328.124C935.028 336.433 925.192 352.047 879.512 424.566L878.956 425.449C833.785 497.159 867.014 520.68 884.457 522.774C902.503 524.941 921.038 513.108 925.203 508.051C932.606 494.568 938.755 483.078 922.631 494.719C885.151 521.776 873.352 476.66 884.457 450.656Z" fill="#692E03"/>
<path d="M909.612 525.555C918.826 476.969 934.937 404.594 980.254 328.125C1025.57 251.655 1140.36 291.722 1166.86 348.98C1204.04 429.32 1209.27 467.198 1218 530.33L1218.1 531.041C1229.29 612.024 1198.14 646.008 1187.07 662.639C1184.94 665.835 1141.39 679.269 1087.4 666.254C1084.08 660.47 1078.63 625.521 1077.71 619.255C1070.51 620.412 1056.49 619.737 1054.87 619.255C1053.95 625.521 1044.35 660.47 1041.03 666.254C984.272 679.992 950.962 665.343 948.281 662.639C928.209 642.393 895.077 602.2 909.612 525.555Z" fill="#F1EBE7"/>
<path d="M1064.23 407.375C1032.24 397.642 1021.57 374.006 996.25 343.418C1109.54 386.52 1154.86 378.177 1154.86 378.177C1154.86 378.177 1096.22 417.107 1064.23 407.375Z" fill="#C9BCB3"/>
<path d="M985.586 404.594C952.222 415.809 952.264 449.086 924.273 453.257C942.624 397.762 966.873 329.616 980.254 323.953L1181.52 379.568C1197.51 411.546 1216.79 492.229 1210.84 488.016C1173.52 461.599 1193.79 436.572 1164.19 419.888C1115.08 392.205 1024.05 391.663 985.586 404.594Z" fill="#956039"/>
<path fill-rule="evenodd" clip-rule="evenodd" d="M1109.26 401.563C1087.14 397.484 1063.6 395.977 1042.19 396.528C1030.63 388.128 1021.97 376.708 1011.69 363.145C1007.02 356.984 1002.01 350.382 996.25 343.418C1109.54 386.52 1154.86 378.177 1154.86 378.177C1154.86 378.177 1133.34 392.463 1109.26 401.563Z" fill="#692E03"/>
<path fill-rule="evenodd" clip-rule="evenodd" d="M1054.69 620.298C1053.08 628.681 1044.2 660.736 1041.03 666.254C984.272 679.993 950.962 665.344 948.281 662.639C929.588 643.784 899.568 607.63 907.271 540.844C931.45 551.869 938.034 565.983 943.971 578.712C952.317 596.603 959.387 611.758 1012.24 611.758C1028.72 622.615 1042.5 621.378 1051.85 620.539C1052.85 620.449 1053.79 620.364 1054.69 620.298Z" fill="#956039"/>
<path fill-rule="evenodd" clip-rule="evenodd" d="M1219.22 540.293C1226.15 607.448 1203.02 640.062 1190.63 657.523C1189.3 659.394 1188.1 661.092 1187.07 662.639C1184.94 665.835 1141.39 679.269 1087.4 666.254C1084.21 660.689 1079.04 628.134 1077.84 620.09C1097.32 619.854 1112.35 615.403 1117.54 613.148C1172.67 613.148 1180.37 592.854 1187.81 573.249C1193.02 559.529 1198.1 546.146 1219.22 540.293Z" fill="#956039"/>
<path fill-rule="evenodd" clip-rule="evenodd" d="M1198.26 646.288C1195.53 650.62 1192.9 654.325 1190.63 657.523C1189.3 659.394 1188.1 661.091 1187.07 662.639C1184.94 665.835 1141.39 679.269 1087.4 666.254C1084.14 660.582 1078.84 626.874 1077.77 619.654C1092.38 618.224 1119.95 613.888 1134.37 606.224C1145.14 600.496 1140.58 605.889 1133.53 614.208L1133.53 614.208C1127.05 621.86 1118.48 631.987 1117.82 638.214C1117.24 643.66 1117.14 649.709 1117.24 654.954C1134.77 656.57 1160.45 654.648 1198.26 646.288Z" fill="#692E03"/>
<path fill-rule="evenodd" clip-rule="evenodd" d="M975.153 336.93C933.707 410.127 918.472 478.838 909.612 525.555C895.077 602.2 928.209 642.393 948.281 662.639C950.962 665.343 984.272 679.992 1041.03 666.254C1042.22 664.18 1044.22 658.358 1046.33 651.453L1046.13 649.312C1021.87 660.161 983.274 651.699 966.296 636.51C951.743 623.491 925.41 574.309 937.191 501.982C943.53 463.063 955.762 414.884 964.955 378.679C969.404 361.155 973.141 346.436 975.153 336.93Z" fill="#2F1E12" fill-opacity="0.2"/>
<path fill-rule="evenodd" clip-rule="evenodd" d="M926.637 452.822C936.892 417.666 951.896 378.005 975.153 336.93C973.141 346.436 969.404 361.155 964.955 378.679L964.955 378.679C960.762 395.195 955.935 414.203 951.325 433.688C944.691 442.491 938.162 450.285 926.637 452.822Z" fill="#692E03"/>
<path fill-rule="evenodd" clip-rule="evenodd" d="M935.942 563.769C930.439 555.652 922.217 547.658 907.273 540.844C906.427 548.176 906.036 555.14 906.035 561.752C906.025 615.36 931.642 645.854 948.283 662.639C950.964 665.343 984.274 679.992 1041.03 666.254C1041.12 666.103 1041.21 665.933 1041.3 665.743C1042.51 663.328 1044.37 657.856 1046.33 651.453L1046.13 649.312C1021.88 660.161 983.276 651.699 966.298 636.51C956.393 627.649 941.03 602.033 935.942 563.769Z" fill="#692E03"/>
<path fill-rule="evenodd" clip-rule="evenodd" d="M1057.41 619.57C1056.12 619.469 1055.22 619.358 1054.87 619.255C1054.17 624.006 1048.48 645.247 1044.33 657.762C1031.97 661.212 1020.89 663.457 1015.97 663.562C1016.09 662.9 1016.25 662.143 1016.43 661.304C1017.62 655.76 1019.56 646.658 1015.97 638.174C1012.86 630.826 1003.73 619.897 996.875 611.686C989.716 603.114 985.031 597.505 992.252 602.025C998.648 606.028 1024.69 615.154 1057.41 619.57Z" fill="#692E03"/>
<path d="M1044.34 172.345C1037.37 199.489 1010.62 215.597 984.598 208.324C961.309 195.23 943.134 173.151 950.107 146.007C957.079 118.864 968.459 96.2229 997.428 104.175C1044.34 117.052 1045.94 144.261 1044.34 172.345Z" fill="#692E03"/>
<path d="M1044.34 172.345C1037.37 199.489 1010.62 215.597 984.598 208.324C961.309 195.23 943.134 173.151 950.107 146.007C957.079 118.864 968.459 96.2229 997.428 104.175C1044.34 117.052 1045.94 144.261 1044.34 172.345Z" stroke="#5F4B3D"/>
<path d="M981.625 184.077C950.952 143.874 982.906 118.051 1005.03 109.348C933.307 109.801 944.58 186.17 973.835 198.008C987.668 210.66 1012.3 224.281 981.625 184.077Z" fill="#502200"/>
<ellipse cx="26.6009" cy="29.1772" rx="26.6009" ry="29.1772" transform="matrix(0.963088 0.269188 -0.248794 0.968556 981.084 123.723)" fill="#956039"/>
<path d="M985.389 133.53C959.687 146.985 971.109 179.617 983.92 187.727L999.292 173.26C978.52 155.808 1006.34 122.563 985.389 133.53Z" fill="#431D01"/>
<path d="M1156.23 207.562C1148.24 238.649 1165.91 270.597 1195.69 278.92C1225.95 279.838 1256.87 254.729 1264.85 223.642C1272.84 192.555 1273.61 180.418 1243.83 172.095C1214.06 163.771 1170.05 178.747 1156.23 207.562Z" fill="#692E03"/>
<path d="M1156.23 207.562C1148.24 238.649 1165.91 270.597 1195.69 278.92C1225.95 279.838 1256.87 254.729 1264.85 223.642C1272.84 192.555 1273.61 180.418 1243.83 172.095C1214.06 163.771 1170.05 178.747 1156.23 207.562Z" stroke="#5F4B3D"/>
<path d="M1202.73 245.196C1172.21 205.013 1203.82 179.802 1225.88 171.069C1161.13 161.764 1165.81 247.334 1194.95 259.141C1208.72 271.782 1233.25 285.378 1202.73 245.196Z" fill="#502200"/>
<ellipse cx="29.9643" cy="30.4458" rx="29.9643" ry="30.4458" transform="matrix(0.963088 0.269188 -0.248794 0.968556 1193.42 181.752)" fill="#956039"/>
<path d="M1200.14 192.414C1172.68 206.305 1185.15 240.554 1198.94 249.141L1215.32 234.113C1192.93 215.685 1222.52 181.092 1200.14 192.414Z" fill="#401B01"/>
<path d="M1236.21 322.828C1228.19 374.04 1189.57 398.461 1059.76 370.249C946.899 335.769 913.924 286.201 934.949 238.625C975.968 145.81 1034.63 125.524 1116.73 148.472C1198.83 171.419 1234.08 203.28 1236.21 322.828Z" fill="#F1EBE7"/>
<path d="M1236.21 322.828C1228.19 374.04 1189.57 398.461 1059.76 370.249C946.899 335.769 913.924 286.201 934.949 238.625C975.968 145.81 1034.63 125.524 1116.73 148.472C1198.83 171.419 1234.08 203.28 1236.21 322.828Z" stroke="#846853"/>
<path fill-rule="evenodd" clip-rule="evenodd" d="M1037.47 362.878C942.593 328.916 915.38 282.908 934.95 238.625C965.357 169.82 1005.46 140.873 1057.62 139.849C1048 142.331 1030.2 150.734 1013.79 168.503C988.501 195.891 965.115 251.394 961.359 266.016C957.845 279.697 957.607 294.293 972.74 314.651C987.432 334.417 1072.18 381.3 1184.6 378.266C1137.01 386.579 1082.17 377.182 1037.47 362.878Z" fill="#C9BCB3"/>
<path d="M1097.54 304.323C1096.47 308.501 1087.37 307.076 1076.47 304.03C1065.58 300.985 1057.01 297.471 1058.08 293.294C1059.16 289.116 1068.26 290.541 1079.16 293.587C1090.05 296.632 1098.62 300.145 1097.54 304.323Z" fill="#692E03"/>
<path d="M1089.55 323.953C1081.55 325.343 1072.25 321.713 1078.4 297.754" stroke="#692E03" stroke-width="16.1998" stroke-linecap="round"/>
<path d="M1056.23 314.221C1058.89 318.392 1069.56 325.344 1078.99 297.915" stroke="#692E03" stroke-width="16.1998" stroke-linecap="round"/>
<ellipse cx="29.3527" cy="26.9572" rx="29.3527" ry="26.9572" transform="matrix(0.963088 0.269188 -0.248794 0.968556 1167.17 296.228)" fill="#CD9F99"/>
<ellipse cx="29.3527" cy="26.9572" rx="29.3527" ry="26.9572" transform="matrix(0.963088 0.269188 -0.248794 0.968556 953.379 236.471)" fill="#CD9F99"/>
<path d="M970.136 243.136C965.951 253.916 957.83 278.911 961.478 293.392C930.748 272.366 951.723 243.111 970.136 243.136Z" fill="#C58D85"/>
<path d="M1231.63 260.171C1226.48 216.887 1200.17 188.762 1187.67 180.11L1193.18 175.021C1219.7 185.379 1233.66 234.956 1237.09 258.015L1231.63 260.171Z" fill="#692E01" fill-opacity="0.2"/>
<path d="M999.348 225.108C983.38 239.422 986.031 262.646 996.903 275.844C1007.78 289.042 1030.27 295.188 1046.23 280.874C1062.2 266.56 1065.6 237.207 1054.73 224.009C1043.86 210.811 1015.32 210.794 999.348 225.108Z" fill="#692E03"/>
<path d="M1185.29 280.688C1189.66 302.172 1173.25 319.134 1156.21 322.905C1139.18 326.676 1116.9 317.513 1112.53 296.029C1108.16 274.545 1123.35 248.876 1140.38 245.105C1157.42 241.334 1180.92 259.204 1185.29 280.688Z" fill="#692E03"/>
<path d="M1068.25 621.489C984.253 621.489 959.574 574.301 961.615 570.046C962.286 568.644 1019.37 599.232 1068.25 599.243C1116.34 599.254 1169.55 568.667 1170.88 570.046C1171.53 574.814 1148.2 621.489 1068.25 621.489Z" fill="#C9BCB3"/>
<ellipse cx="12.4241" cy="15.3945" rx="12.4241" ry="15.3945" transform="matrix(0.932951 0.360004 -0.334234 0.94249 1031.02 232.359)" fill="#111111"/>
<ellipse cx="12.4241" cy="15.3945" rx="12.4241" ry="15.3945" transform="matrix(0.932951 0.360004 -0.334234 0.94249 1130.62 258.197)" fill="#111111"/>
<path d="M1145.11 276.026C1143.84 277.508 1144.13 274.304 1142.36 272.649C1140.59 270.995 1137.42 271.516 1138.69 270.035C1139.96 268.553 1142.99 267.986 1144.76 269.641C1146.53 271.295 1146.38 274.544 1145.11 276.026Z" fill="white"/>
<path d="M1046.81 250.454C1045.48 251.999 1045.79 248.657 1043.94 246.931C1042.09 245.205 1038.79 245.749 1040.11 244.203C1041.44 242.657 1044.6 242.066 1046.45 243.792C1048.3 245.518 1048.14 248.908 1046.81 250.454Z" fill="white"/>
</g>
<g filter="url(#filter1_d_1512_180)">
<path d="M726.168 480.42C647.648 405.635 647.453 284.58 725.758 210L765.791 248.128C709.551 301.692 709.688 388.679 766.09 442.398C822.491 496.116 913.823 496.247 970.063 442.682L1010.09 480.81C931.813 555.368 804.689 555.205 726.168 480.42Z" fill="#F9C846"/>
</g>
<g filter="url(#filter2_d_1512_180)">
<path d="M836.103 281.88L817.938 286.866L853.165 411.536L871.331 406.55L836.103 281.88Z" fill="#F07167"/>
<path d="M779.112 354.861L784.268 373.09L910.124 338.577L904.968 320.349L779.112 354.861Z" fill="#F07167"/>
<path d="M906.185 370.519L896.93 386.884L783.072 322.901L792.342 306.545L906.185 370.519Z" fill="#F07167"/>
<path d="M821.021 407.667L804.474 398.366L868.251 285.762L884.783 295.054L821.021 407.667Z" fill="#F07167"/>
</g>
<g filter="url(#filter3_d_1512_180)">
<path d="M1406.56 638L1220 824.563L1406.56 1011.13L1593.13 824.563L1406.56 638Z" fill="#FCD8CA"/>
</g>
<g filter="url(#filter4_d_1512_180)">
<rect x="398.568" y="503.572" width="443.573" height="186.414" rx="93.2068" transform="rotate(-179.721 398.568 503.572)" fill="#85C4CB"/>
</g>
<g filter="url(#filter5_d_1512_180)">
<path d="M53.3943 1001.56L64.6054 986.777C67.7099 982.699 74.0419 982.531 77.3748 986.463L89.3943 1000.65C91.8794 1003.59 96.2586 1004.36 99.6886 1002.46L116.231 993.318C120.818 990.774 126.656 993.09 128.036 997.967L132.958 1015.6C133.98 1019.26 137.645 1021.64 141.578 1021.24L160.587 1019.31C165.854 1018.77 170.222 1023.15 169.387 1028.13L166.384 1046.13C165.755 1049.86 168.087 1053.47 171.84 1054.63L190.037 1060.24C195.084 1061.79 197.196 1067.49 194.302 1071.71L183.867 1087C181.705 1090.18 182.287 1094.36 185.24 1096.88L199.469 1109.07C203.406 1112.43 202.908 1118.45 198.472 1121.2L182.422 1131.11C179.102 1133.15 177.835 1137.21 179.458 1140.68L187.267 1157.32C189.425 1161.93 186.408 1167.24 181.175 1168.01L162.292 1170.84C158.381 1171.43 155.508 1174.65 155.513 1178.42L155.555 1196.64C155.559 1201.7 150.538 1205.38 145.425 1204.06L126.972 1199.32C123.141 1198.35 119.142 1200.16 117.547 1203.61L109.8 1220.28C107.654 1224.9 101.509 1226.3 97.3942 1223.12L82.542 1211.62C79.476 1209.24 75.0236 1209.36 72.0985 1211.88L57.9231 1224.09C53.9972 1227.48 47.7656 1226.37 45.3601 1221.87L36.7018 1205.61C34.9078 1202.25 30.8128 1200.63 27.0492 1201.8L8.87883 1207.45C3.84874 1209.03 -1.37404 1205.6 -1.64868 1200.56L-2.63079 1182.36C-2.83535 1178.59 -5.90055 1175.52 -9.83699 1175.11L-28.8628 1173.23C-34.1252 1172.71 -37.4406 1167.56 -35.5398 1162.85L-28.6762 1145.84C-27.2506 1142.32 -28.7331 1138.32 -32.1681 1136.45L-48.758 1127.34C-53.3496 1124.84 -54.1905 1118.84 -50.4332 1115.27L-36.8973 1102.41C-34.0825 1099.75 -33.7542 1095.52 -36.0915 1092.47L-47.354 1077.74C-50.4742 1073.66 -48.6745 1067.87 -43.7245 1066.07L-25.869 1059.56C-22.1742 1058.22 -20.0537 1054.49 -20.8816 1050.81L-24.909 1032.97C-26.0302 1028.04 -21.9107 1023.44 -16.6107 1023.72L2.4882 1024.71C6.45 1024.92 9.95708 1022.34 10.7912 1018.64L14.7325 1000.8C15.8252 995.855 21.5462 993.265 26.2573 995.554L43.2952 1003.87C46.8196 1005.6 51.1511 1004.61 53.4649 1001.54L53.3943 1001.56Z" fill="#E74632"/>
</g>
<g filter="url(#filter6_d_1512_180)">
<path d="M30.5 906C-17.2803 906 -56 942.877 -56 988.385C-56 1033.89 -17.2637 1070.77 30.5 1070.77C78.2637 1070.77 117 1033.89 117 988.385C117 942.877 78.2637 906 30.5 906ZM30.5 1055.67C-8.53556 1055.67 -40.173 1025.55 -40.173 988.369C-40.173 951.192 -8.53556 921.064 30.5 921.064C69.5356 921.064 101.173 951.192 101.173 988.369C101.173 1025.55 69.5356 1055.67 30.5 1055.67Z" fill="#F7E7D8"/>
</g>
<defs>
<filter id="filter0_d_1512_180" x="852.244" y="102.562" width="427.049" height="577.486" filterUnits="userSpaceOnUse" color-interpolation-filters="sRGB">
<feFlood flood-opacity="0" result="BackgroundImageFix"/>
<feColorMatrix in="SourceAlpha" type="matrix" values="0 0 0 0 0 0 0 0 0 0 0 0 0 0 0 0 0 0 127 0" result="hardAlpha"/>
<feOffset dy="4"/>
<feGaussianBlur stdDeviation="2"/>
<feComposite in2="hardAlpha" operator="out"/>
<feColorMatrix type="matrix" values="0 0 0 0 0 0 0 0 0 0 0 0 0 0 0 0 0 0 0.25 0"/>
<feBlend mode="normal" in2="BackgroundImageFix" result="effect1_dropShadow_1512_180"/>
<feBlend mode="normal" in="SourceGraphic" in2="effect1_dropShadow_1512_180" result="shape"/>
</filter>
<filter id="filter1_d_1512_180" x="663.154" y="210" width="350.941" height="334.619" filterUnits="userSpaceOnUse" color-interpolation-filters="sRGB">
<feFlood flood-opacity="0" result="BackgroundImageFix"/>
<feColorMatrix in="SourceAlpha" type="matrix" values="0 0 0 0 0 0 0 0 0 0 0 0 0 0 0 0 0 0 127 0" result="hardAlpha"/>
<feOffset dy="4"/>
<feGaussianBlur stdDeviation="2"/>
<feComposite in2="hardAlpha" operator="out"/>
<feColorMatrix type="matrix" values="0 0 0 0 0 0 0 0 0 0 0 0 0 0 0 0 0 0 0.25 0"/>
<feBlend mode="normal" in2="BackgroundImageFix" result="effect1_dropShadow_1512_180"/>
<feBlend mode="normal" in="SourceGraphic" in2="effect1_dropShadow_1512_180" result="shape"/>
</filter>
<filter id="filter2_d_1512_180" x="775.113" y="281.88" width="139.01" height="137.656" filterUnits="userSpaceOnUse" color-interpolation-filters="sRGB">
<feFlood flood-opacity="0" result="BackgroundImageFix"/>
<feColorMatrix in="SourceAlpha" type="matrix" values="0 0 0 0 0 0 0 0 0 0 0 0 0 0 0 0 0 0 127 0" result="hardAlpha"/>
<feOffset dy="4"/>
<feGaussianBlur stdDeviation="2"/>
<feComposite in2="hardAlpha" operator="out"/>
<feColorMatrix type="matrix" values="0 0 0 0 0 0 0 0 0 0 0 0 0 0 0 0 0 0 0.25 0"/>
<feBlend mode="normal" in2="BackgroundImageFix" result="effect1_dropShadow_1512_180"/>
<feBlend mode="normal" in="SourceGraphic" in2="effect1_dropShadow_1512_180" result="shape"/>
</filter>
<filter id="filter3_d_1512_180" x="1216" y="638" width="381.127" height="381.127" filterUnits="userSpaceOnUse" color-interpolation-filters="sRGB">
<feFlood flood-opacity="0" result="BackgroundImageFix"/>
<feColorMatrix in="SourceAlpha" type="matrix" values="0 0 0 0 0 0 0 0 0 0 0 0 0 0 0 0 0 0 127 0" result="hardAlpha"/>
<feOffset dy="4"/>
<feGaussianBlur stdDeviation="2"/>
<feComposite in2="hardAlpha" operator="out"/>
<feColorMatrix type="matrix" values="0 0 0 0 0 0 0 0 0 0 0 0 0 0 0 0 0 0 0.25 0"/>
<feBlend mode="normal" in2="BackgroundImageFix" result="effect1_dropShadow_1512_180"/>
<feBlend mode="normal" in="SourceGraphic" in2="effect1_dropShadow_1512_180" result="shape"/>
</filter>
<filter id="filter4_d_1512_180" x="-48.5469" y="315.453" width="451.57" height="195.667" filterUnits="userSpaceOnUse" color-interpolation-filters="sRGB">
<feFlood flood-opacity="0" result="BackgroundImageFix"/>
<feColorMatrix in="SourceAlpha" type="matrix" values="0 0 0 0 0 0 0 0 0 0 0 0 0 0 0 0 0 0 127 0" result="hardAlpha"/>
<feOffset dy="4"/>
<feGaussianBlur stdDeviation="2"/>
<feComposite in2="hardAlpha" operator="out"/>
<feColorMatrix type="matrix" values="0 0 0 0 0 0 0 0 0 0 0 0 0 0 0 0 0 0 0.25 0"/>
<feBlend mode="normal" in2="BackgroundImageFix" result="effect1_dropShadow_1512_180"/>
<feBlend mode="normal" in="SourceGraphic" in2="effect1_dropShadow_1512_180" result="shape"/>
</filter>
<filter id="filter5_d_1512_180" x="-56.7969" y="983.614" width="262.932" height="250.453" filterUnits="userSpaceOnUse" color-interpolation-filters="sRGB">
<feFlood flood-opacity="0" result="BackgroundImageFix"/>
<feColorMatrix in="SourceAlpha" type="matrix" values="0 0 0 0 0 0 0 0 0 0 0 0 0 0 0 0 0 0 127 0" result="hardAlpha"/>
<feOffset dy="4"/>
<feGaussianBlur stdDeviation="2"/>
<feComposite in2="hardAlpha" operator="out"/>
<feColorMatrix type="matrix" values="0 0 0 0 0 0 0 0 0 0 0 0 0 0 0 0 0 0 0.25 0"/>
<feBlend mode="normal" in2="BackgroundImageFix" result="effect1_dropShadow_1512_180"/>
<feBlend mode="normal" in="SourceGraphic" in2="effect1_dropShadow_1512_180" result="shape"/>
</filter>
<filter id="filter6_d_1512_180" x="-60" y="906" width="181" height="172.77" filterUnits="userSpaceOnUse" color-interpolation-filters="sRGB">
<feFlood flood-opacity="0" result="BackgroundImageFix"/>
<feColorMatrix in="SourceAlpha" type="matrix" values="0 0 0 0 0 0 0 0 0 0 0 0 0 0 0 0 0 0 127 0" result="hardAlpha"/>
<feOffset dy="4"/>
<feGaussianBlur stdDeviation="2"/>
<feComposite in2="hardAlpha" operator="out"/>
<feColorMatrix type="matrix" values="0 0 0 0 0 0 0 0 0 0 0 0 0 0 0 0 0 0 0.25 0"/>
<feBlend mode="normal" in2="BackgroundImageFix" result="effect1_dropShadow_1512_180"/>
<feBlend mode="normal" in="SourceGraphic" in2="effect1_dropShadow_1512_180" result="shape"/>
</filter>
</defs>
</svg>
