<svg width="595" height="763" viewBox="0 0 595 763" fill="none" xmlns="http://www.w3.org/2000/svg">
<g filter="url(#filter0_d_873_136)">
<path d="M289.333 172.348C282.361 199.491 255.614 215.599 229.593 208.326C206.304 195.233 188.13 173.153 195.102 146.01C202.074 118.867 228.821 102.759 254.842 110.032C280.863 117.305 290.936 144.263 289.333 172.348Z" fill="#A0836F"/>
<path d="M289.333 172.348C282.361 199.491 255.614 215.599 229.593 208.326C206.304 195.233 188.13 173.153 195.102 146.01C202.074 118.867 228.821 102.759 254.842 110.032C280.863 117.305 290.936 144.263 289.333 172.348Z" stroke="#5F4B3D"/>
<path d="M226.619 184.08C195.946 143.876 227.9 118.054 250.028 109.351C178.301 109.804 189.575 186.173 218.829 198.01C232.662 210.663 257.293 224.284 226.619 184.08Z" fill="#846853"/>
<ellipse cx="26.6009" cy="29.1772" rx="26.6009" ry="29.1772" transform="matrix(0.963088 0.269188 -0.248794 0.968556 226.078 123.726)" fill="#C6A195"/>
<path d="M230.383 133.532C204.681 146.987 216.103 179.619 228.914 187.729L244.286 173.263C223.514 155.811 251.333 122.566 230.383 133.532Z" fill="#B59084"/>
<path d="M412.737 205.531C405.765 232.674 421.339 260.611 447.523 267.93C474.123 268.78 500.585 259.177 507.557 232.034C514.529 204.89 498.956 176.953 472.772 169.635C446.588 162.316 424.843 180.382 412.737 205.531Z" fill="#A0836F"/>
<path d="M412.737 205.531C405.765 232.674 421.339 260.611 447.523 267.93C474.123 268.78 500.585 259.177 507.557 232.034C514.529 204.89 498.956 176.953 472.772 169.635C446.588 162.316 424.843 180.382 412.737 205.531Z" stroke="#5F4B3D"/>
<path d="M447.722 245.198C417.203 205.015 448.813 179.804 470.87 171.071C406.125 161.767 410.808 247.336 439.944 259.143C453.714 271.785 478.241 285.381 447.722 245.198Z" fill="#846853"/>
<ellipse cx="29.9643" cy="30.4458" rx="29.9643" ry="30.4458" transform="matrix(0.963088 0.269188 -0.248794 0.968556 438.41 181.755)" fill="#C6A195"/>
<path d="M445.134 192.411C417.671 206.301 430.145 240.551 443.936 249.138L460.316 234.11C437.924 215.682 467.517 181.089 445.134 192.411Z" fill="#B59084"/>
<path d="M481.201 322.825C473.183 374.037 434.563 398.458 304.757 370.247C191.893 335.766 158.918 286.199 179.944 238.622C220.962 145.807 279.625 125.521 361.725 148.469C443.825 171.416 479.074 203.278 481.201 322.825Z" fill="#A0836F"/>
<path d="M481.201 322.825C473.183 374.037 434.563 398.458 304.757 370.247C191.893 335.766 158.918 286.199 179.944 238.622C220.962 145.807 279.625 125.521 361.725 148.469C443.825 171.416 479.074 203.278 481.201 322.825Z" stroke="#846853"/>
<path d="M301.682 140.907C301.523 140.907 301.361 140.908 301.198 140.909C294.383 141.081 278.532 147.119 258.783 168.506C233.492 195.894 210.107 251.397 206.35 266.019C202.836 279.7 202.598 294.296 217.731 314.654C232.423 334.42 317.168 381.304 429.59 378.269C355.341 391.24 264.422 357.03 220.896 332.401C177.369 307.772 173.308 274.379 175.911 256.045C178.514 237.711 201.072 196.363 227.849 168.657C249.053 146.718 285.252 141.037 301.198 140.909C301.365 140.905 301.526 140.905 301.682 140.907Z" fill="#846853"/>
<ellipse cx="34.8564" cy="31.7143" rx="34.8564" ry="31.7143" transform="matrix(0.963088 0.269188 -0.248794 0.968556 294.684 271.958)" fill="#C6AA95"/>
<path d="M342.538 304.326C341.465 308.503 332.363 307.079 321.467 304.033C310.57 300.987 302.005 297.474 303.079 293.297C304.152 289.119 313.253 290.544 324.15 293.589C335.046 296.635 343.611 300.148 342.538 304.326Z" fill="#5F4B3D"/>
<path d="M383.271 280.911C389.859 278.778 405.326 277.536 414.485 289.636" stroke="#5F4B3D" stroke-width="16.1998" stroke-linecap="round"/>
<path d="M251.933 244.199C258.521 242.065 273.988 240.823 283.147 252.923" stroke="#5F4B3D" stroke-width="16.1998" stroke-linecap="round"/>
<path d="M331.966 325.831C326.204 324.22 317.242 321.715 323.396 297.756" stroke="#5F4B3D" stroke-width="16.1998" stroke-linecap="round"/>
<path d="M302.519 317.596C308.511 319.271 317.832 321.876 323.986 297.917" stroke="#5F4B3D" stroke-width="16.1998" stroke-linecap="round"/>
<ellipse cx="29.3527" cy="26.9572" rx="29.3527" ry="26.9572" transform="matrix(0.963088 0.269188 -0.248794 0.968556 412.162 296.231)" fill="#CD9F99"/>
<ellipse cx="7.86902" cy="10.3429" rx="7.86902" ry="10.3429" transform="matrix(-0.614425 0.779075 0.765033 0.656515 288.551 220.545)" fill="#C6AA95"/>
<ellipse cx="7.86902" cy="10.3429" rx="7.86902" ry="10.3429" transform="matrix(0.158675 0.995161 -0.977224 0.169545 392.246 249.532)" fill="#C6AA95"/>
<ellipse cx="29.3527" cy="26.9572" rx="29.3527" ry="26.9572" transform="matrix(0.963088 0.269188 -0.248794 0.968556 198.373 236.473)" fill="#CD9F99"/>
<path d="M215.131 243.14C210.945 253.919 202.824 278.914 206.472 293.395C175.742 272.369 196.717 243.114 215.131 243.14Z" fill="#C58D85"/>
<path d="M473.955 260.174C468.802 216.89 442.501 188.765 429.995 180.112L435.51 175.024C462.026 185.382 475.99 234.959 479.418 258.018L473.955 260.174Z" fill="#927763" fill-opacity="0.3"/>
<path d="M212.31 198.894C237.521 164.097 273.779 153.457 288.757 152.487L286.419 145.203C258.491 140.344 222.634 175.996 208.613 194.177L212.31 198.894Z" fill="#927763" fill-opacity="0.3"/>
<path d="M445.294 349.883C440.171 346.324 432.249 348.4 428.929 349.883L407.583 395.111C421.339 432.183 450.986 507.81 459.524 513.741C470.197 521.156 483.716 525.604 504.35 518.19C524.984 510.776 528.541 472.221 497.235 424.027C465.928 375.834 451.698 354.332 445.294 349.883Z" fill="#956039"/>
<path d="M440.707 417.167C442.369 425.255 443.015 442.923 443.477 450.384L457.397 511.611C472.635 523.887 518.282 530.539 519.667 492.989C510.663 506.709 498.196 508.876 490.577 506.709C480.88 506.709 469.105 474.936 466.334 459.772C463.628 444.96 438.629 407.058 440.707 417.167Z" fill="#692E03"/>
<path d="M175.94 347.589C197.266 321.297 212.624 326.641 215.926 328.124C215.926 328.124 220.974 327.296 221.257 329.515C223.923 350.37 175.94 488.015 175.94 488.015C171.941 501.919 172.008 507.81 163.517 513.741C152.903 521.156 139.459 525.604 118.939 518.19C98.419 510.775 94.8811 472.221 126.015 424.027C157.149 375.833 170.989 353.693 175.94 347.589Z" fill="#956039"/>
<path d="M129.457 450.656C138.341 429.852 173.647 370.806 187.759 346.969C187.065 346.006 208.04 326.12 202.595 328.124C180.028 336.433 170.192 352.047 124.512 424.566L123.956 425.449C78.7848 497.159 112.014 520.68 129.457 522.774C147.503 524.941 166.038 513.108 170.203 508.051C177.606 494.568 183.755 483.078 167.631 494.719C130.151 521.776 118.352 476.66 129.457 450.656Z" fill="#692E03"/>
<path d="M154.612 525.555C163.826 476.969 179.937 404.594 225.254 328.125C270.572 251.655 385.358 291.722 411.857 348.98C449.038 429.32 454.273 467.198 462.998 530.33L463.096 531.041C474.289 612.024 443.143 646.008 432.069 662.639C429.94 665.835 386.388 679.269 332.401 666.254C329.078 660.47 323.634 625.521 322.711 619.255C315.513 620.412 301.485 619.737 299.87 619.255C298.947 625.521 289.35 660.47 286.027 666.254C229.272 679.992 195.962 665.343 193.281 662.639C173.209 642.393 140.077 602.2 154.612 525.555Z" fill="#F1EBE7"/>
<path d="M309.227 407.375C277.238 397.642 266.575 374.006 241.25 343.418C354.544 386.52 399.862 378.177 399.862 378.177C399.862 378.177 341.216 417.107 309.227 407.375Z" fill="#C9BCB3"/>
<path d="M230.586 404.594C197.222 415.809 197.264 449.086 169.273 453.257C187.624 397.762 211.873 329.616 225.254 323.953L426.518 379.568C442.513 411.546 461.794 492.229 455.841 488.016C418.521 461.599 438.788 436.572 409.191 419.888C360.083 392.205 269.054 391.663 230.586 404.594Z" fill="#956039"/>
<path fill-rule="evenodd" clip-rule="evenodd" d="M354.263 401.563C332.139 397.484 308.596 395.977 287.189 396.528C275.628 388.128 266.971 376.708 256.69 363.145C252.02 356.984 247.015 350.382 241.25 343.418C354.544 386.52 399.862 378.177 399.862 378.177C399.862 378.177 378.342 392.463 354.263 401.563Z" fill="#692E03"/>
<path fill-rule="evenodd" clip-rule="evenodd" d="M299.689 620.298C298.076 628.681 289.197 660.736 286.027 666.254C229.272 679.993 195.962 665.344 193.281 662.639C174.588 643.784 144.568 607.63 152.271 540.844C176.45 551.869 183.034 565.983 188.971 578.712C197.317 596.603 204.387 611.758 257.243 611.758C273.723 622.615 287.498 621.378 296.847 620.539C297.845 620.449 298.793 620.364 299.689 620.298Z" fill="#956039"/>
<path fill-rule="evenodd" clip-rule="evenodd" d="M464.216 540.293C471.151 607.448 448.017 640.062 435.631 657.523C434.304 659.394 433.1 661.092 432.07 662.639C429.941 665.835 386.388 679.269 332.402 666.254C329.205 660.689 324.045 628.134 322.836 620.09C342.315 619.854 357.353 615.403 362.542 613.148C417.667 613.148 425.371 592.854 432.813 573.249C438.021 559.529 443.101 546.146 464.216 540.293Z" fill="#956039"/>
<path fill-rule="evenodd" clip-rule="evenodd" d="M443.264 646.288C440.526 650.62 437.898 654.325 435.63 657.523C434.303 659.394 433.099 661.091 432.068 662.639C429.94 665.835 386.387 679.269 332.4 666.254C329.143 660.582 323.845 626.874 322.77 619.654C337.383 618.224 364.947 613.888 379.365 606.224C390.141 600.496 385.575 605.889 378.531 614.208L378.531 614.208C372.052 621.86 363.476 631.987 362.815 638.214C362.237 643.66 362.139 649.709 362.242 654.954C379.774 656.57 405.448 654.648 443.264 646.288Z" fill="#692E03"/>
<path fill-rule="evenodd" clip-rule="evenodd" d="M220.153 336.93C178.707 410.127 163.472 478.838 154.612 525.555C140.077 602.2 173.209 642.393 193.281 662.639C195.962 665.343 229.272 679.992 286.027 666.254C287.218 664.18 289.216 658.358 291.331 651.453L291.129 649.312C266.875 660.161 228.274 651.699 211.296 636.51C196.743 623.491 170.41 574.309 182.191 501.982C188.53 463.063 200.762 414.884 209.955 378.679C214.404 361.155 218.141 346.436 220.153 336.93Z" fill="#2F1E12" fill-opacity="0.2"/>
<path fill-rule="evenodd" clip-rule="evenodd" d="M171.637 452.822C181.892 417.666 196.896 378.005 220.153 336.93C218.141 346.436 214.404 361.155 209.955 378.679L209.955 378.679C205.762 395.195 200.935 414.203 196.325 433.688C189.691 442.491 183.162 450.285 171.637 452.822Z" fill="#692E03"/>
<path fill-rule="evenodd" clip-rule="evenodd" d="M180.942 563.769C175.439 555.652 167.217 547.658 152.273 540.844C151.427 548.176 151.036 555.14 151.035 561.752C151.025 615.36 176.642 645.854 193.283 662.639C195.964 665.343 229.274 679.992 286.029 666.254C286.116 666.103 286.207 665.933 286.302 665.743C287.511 663.328 289.372 657.856 291.333 651.453L291.131 649.312C266.877 660.161 228.276 651.699 211.298 636.51C201.393 627.649 186.03 602.033 180.942 563.769Z" fill="#692E03"/>
<path fill-rule="evenodd" clip-rule="evenodd" d="M302.411 619.57C301.124 619.469 300.216 619.358 299.872 619.255C299.172 624.006 293.485 645.247 289.328 657.762C276.968 661.212 265.888 663.457 260.969 663.562C261.091 662.9 261.253 662.143 261.432 661.304C262.615 655.76 264.558 646.658 260.969 638.174C257.86 630.826 248.732 619.897 241.875 611.686C234.716 603.114 230.031 597.505 237.252 602.025C243.648 606.028 269.688 615.154 302.411 619.57Z" fill="#692E03"/>
<path d="M289.338 172.345C282.365 199.489 255.619 215.597 229.598 208.324C206.309 195.23 188.134 173.151 195.107 146.007C202.079 118.864 213.459 96.2229 242.428 104.175C289.338 117.052 290.941 144.261 289.338 172.345Z" fill="#692E03"/>
<path d="M289.338 172.345C282.365 199.489 255.619 215.597 229.598 208.324C206.309 195.23 188.134 173.151 195.107 146.007C202.079 118.864 213.459 96.2229 242.428 104.175C289.338 117.052 290.941 144.261 289.338 172.345Z" stroke="#5F4B3D"/>
<path d="M226.625 184.077C195.952 143.874 227.906 118.051 250.033 109.348C178.307 109.801 189.58 186.17 218.835 198.008C232.668 210.66 257.298 224.281 226.625 184.077Z" fill="#502200"/>
<ellipse cx="26.6009" cy="29.1772" rx="26.6009" ry="29.1772" transform="matrix(0.963088 0.269188 -0.248794 0.968556 226.084 123.723)" fill="#956039"/>
<path d="M230.389 133.53C204.687 146.985 216.109 179.617 228.92 187.727L244.292 173.26C223.52 155.808 251.338 122.563 230.389 133.53Z" fill="#431D01"/>
<path d="M401.227 207.562C393.242 238.649 410.909 270.597 440.687 278.92C470.952 279.838 501.87 254.729 509.855 223.642C517.84 192.555 518.613 180.418 488.834 172.095C459.055 163.771 415.05 178.747 401.227 207.562Z" fill="#692E03"/>
<path d="M401.227 207.562C393.242 238.649 410.909 270.597 440.687 278.92C470.952 279.838 501.87 254.729 509.855 223.642C517.84 192.555 518.613 180.418 488.834 172.095C459.055 163.771 415.05 178.747 401.227 207.562Z" stroke="#5F4B3D"/>
<path d="M447.728 245.196C417.209 205.013 448.818 179.802 470.876 171.069C406.131 161.764 410.814 247.334 439.95 259.141C453.72 271.782 478.247 285.378 447.728 245.196Z" fill="#502200"/>
<ellipse cx="29.9643" cy="30.4458" rx="29.9643" ry="30.4458" transform="matrix(0.963088 0.269188 -0.248794 0.968556 438.418 181.752)" fill="#956039"/>
<path d="M445.139 192.414C417.677 206.305 430.151 240.554 443.942 249.141L460.322 234.113C437.93 215.685 467.523 181.092 445.139 192.414Z" fill="#401B01"/>
<path d="M481.207 322.828C473.189 374.04 434.569 398.461 304.762 370.249C191.899 335.769 158.924 286.201 179.949 238.625C220.968 145.81 279.63 125.524 361.731 148.472C443.831 171.419 479.079 203.28 481.207 322.828Z" fill="#F1EBE7"/>
<path d="M481.207 322.828C473.189 374.04 434.569 398.461 304.762 370.249C191.899 335.769 158.924 286.201 179.949 238.625C220.968 145.81 279.63 125.524 361.731 148.472C443.831 171.419 479.079 203.28 481.207 322.828Z" stroke="#846853"/>
<path fill-rule="evenodd" clip-rule="evenodd" d="M282.466 362.878C187.593 328.916 160.38 282.908 179.95 238.625C210.357 169.82 250.461 140.873 302.62 139.849C292.998 142.331 275.2 150.734 258.792 168.503C233.501 195.891 210.115 251.394 206.359 266.016C202.845 279.697 202.607 294.293 217.74 314.651C232.432 334.417 317.177 381.3 429.599 378.266C382.011 386.579 327.172 377.182 282.466 362.878Z" fill="#C9BCB3"/>
<path d="M342.544 304.323C341.471 308.501 332.369 307.076 321.473 304.03C310.576 300.985 302.011 297.471 303.084 293.294C304.158 289.116 313.259 290.541 324.155 293.587C335.052 296.632 343.617 300.145 342.544 304.323Z" fill="#692E03"/>
<path d="M334.551 323.953C326.554 325.343 317.246 321.713 323.4 297.754" stroke="#692E03" stroke-width="16.1998" stroke-linecap="round"/>
<path d="M301.229 314.221C303.895 318.392 314.558 325.344 323.992 297.915" stroke="#692E03" stroke-width="16.1998" stroke-linecap="round"/>
<ellipse cx="29.3527" cy="26.9572" rx="29.3527" ry="26.9572" transform="matrix(0.963088 0.269188 -0.248794 0.968556 412.168 296.228)" fill="#CD9F99"/>
<ellipse cx="29.3527" cy="26.9572" rx="29.3527" ry="26.9572" transform="matrix(0.963088 0.269188 -0.248794 0.968556 198.379 236.471)" fill="#CD9F99"/>
<path d="M215.136 243.136C210.951 253.916 202.83 278.911 206.478 293.392C175.748 272.366 196.723 243.111 215.136 243.136Z" fill="#C58D85"/>
<path d="M476.629 260.171C471.475 216.887 445.175 188.762 432.669 180.11L438.184 175.021C464.7 185.379 478.664 234.956 482.092 258.015L476.629 260.171Z" fill="#692E01" fill-opacity="0.2"/>
<path d="M244.348 225.108C228.38 239.422 231.031 262.646 241.903 275.844C252.776 289.042 275.266 295.188 291.235 280.874C307.203 266.56 310.603 237.207 299.73 224.009C288.858 210.811 260.317 210.794 244.348 225.108Z" fill="#692E03"/>
<path d="M430.287 280.688C434.657 302.172 418.245 319.134 401.21 322.905C384.175 326.676 361.9 317.513 357.53 296.029C353.159 274.545 368.347 248.876 385.382 245.105C402.417 241.334 425.916 259.204 430.287 280.688Z" fill="#692E03"/>
<path d="M313.248 621.489C229.253 621.489 204.574 574.301 206.615 570.046C207.286 568.644 264.374 599.232 313.248 599.243C361.34 599.254 414.553 568.667 415.876 570.046C416.531 574.814 393.197 621.489 313.248 621.489Z" fill="#C9BCB3"/>
<ellipse cx="12.4241" cy="15.3945" rx="12.4241" ry="15.3945" transform="matrix(0.932951 0.360004 -0.334234 0.94249 276.018 232.359)" fill="#111111"/>
<ellipse cx="12.4241" cy="15.3945" rx="12.4241" ry="15.3945" transform="matrix(0.932951 0.360004 -0.334234 0.94249 375.615 258.197)" fill="#111111"/>
<path d="M390.108 276.026C388.837 277.508 389.131 274.304 387.358 272.649C385.585 270.995 382.418 271.516 383.689 270.035C384.959 268.553 387.989 267.986 389.761 269.641C391.534 271.295 391.379 274.544 390.108 276.026Z" fill="white"/>
<path d="M291.81 250.454C290.484 251.999 290.79 248.657 288.941 246.931C287.091 245.205 283.787 245.749 285.112 244.203C286.438 242.657 289.599 242.066 291.448 243.792C293.298 245.518 293.136 248.908 291.81 250.454Z" fill="white"/>
</g>
<defs>
<filter id="filter0_d_873_136" x="97.2441" y="102.562" width="427.049" height="577.486" filterUnits="userSpaceOnUse" color-interpolation-filters="sRGB">
<feFlood flood-opacity="0" result="BackgroundImageFix"/>
<feColorMatrix in="SourceAlpha" type="matrix" values="0 0 0 0 0 0 0 0 0 0 0 0 0 0 0 0 0 0 127 0" result="hardAlpha"/>
<feOffset dy="4"/>
<feGaussianBlur stdDeviation="2"/>
<feComposite in2="hardAlpha" operator="out"/>
<feColorMatrix type="matrix" values="0 0 0 0 0 0 0 0 0 0 0 0 0 0 0 0 0 0 0.25 0"/>
<feBlend mode="normal" in2="BackgroundImageFix" result="effect1_dropShadow_873_136"/>
<feBlend mode="normal" in="SourceGraphic" in2="effect1_dropShadow_873_136" result="shape"/>
</filter>
</defs>
</svg>
