<svg width="229" height="347" viewBox="0 0 229 347" fill="none" xmlns="http://www.w3.org/2000/svg">
<g filter="url(#filter0_d_1505_178)">
<path d="M53.3943 95.5569L64.6054 80.7773C67.7099 76.6991 74.0419 76.5305 77.3748 80.4634L89.3943 94.6456C91.8794 97.5867 96.2586 98.3631 99.6886 96.4634L116.231 87.3176C120.818 84.7736 126.656 87.0896 128.036 91.9674L132.958 109.6C133.98 113.256 137.645 115.642 141.578 115.24L160.587 113.308C165.854 112.767 170.222 117.151 169.387 122.132L166.384 140.132C165.755 143.857 168.087 147.474 171.84 148.631L190.037 154.237C195.084 155.785 197.196 161.492 194.302 165.711L183.867 181.001C181.705 184.176 182.287 188.359 185.24 190.885L199.469 203.067C203.406 206.435 202.908 212.454 198.472 215.201L182.422 225.111C179.102 227.152 177.835 231.212 179.458 234.683L187.267 251.323C189.425 255.928 186.408 261.243 181.175 262.014L162.292 264.842C158.381 265.428 155.508 268.647 155.513 272.417L155.555 290.645C155.559 295.695 150.538 299.382 145.425 298.062L126.972 293.321C123.141 292.348 119.142 294.164 117.547 297.613L109.8 314.279C107.654 318.897 101.509 320.303 97.3942 317.119L82.542 305.624C79.476 303.243 75.0236 303.361 72.0985 305.88L57.9231 318.089C53.9972 321.478 47.7656 320.367 45.3601 315.866L36.7018 299.61C34.9078 296.25 30.8128 294.626 27.0492 295.795L8.87883 301.448C3.84874 303.026 -1.37404 299.597 -1.64868 294.561L-2.63079 276.359C-2.83535 272.587 -5.90055 269.518 -9.83699 269.115L-28.8628 267.232C-34.1252 266.705 -37.4406 261.559 -35.5398 256.855L-28.6762 239.845C-27.2506 236.317 -28.7331 232.316 -32.1681 230.446L-48.758 221.342C-53.3496 218.835 -54.1905 212.838 -50.4332 209.275L-36.8973 196.406C-34.0825 193.746 -33.7542 189.52 -36.0915 186.474L-47.354 171.739C-50.4742 167.663 -48.6745 161.867 -43.7245 160.07L-25.869 153.565C-22.1742 152.221 -20.0537 148.487 -20.8816 144.81L-24.909 126.973C-26.0302 122.036 -21.9107 117.441 -16.6107 117.722L2.4882 118.71C6.45 118.918 9.95708 116.337 10.7912 112.636L14.7325 94.8008C15.8252 89.8549 21.5462 87.2649 26.2573 89.5543L43.2952 97.8683C46.8196 99.5993 51.1511 98.6079 53.4649 95.5407L53.3943 95.5569Z" fill="#E74632"/>
</g>
<g filter="url(#filter1_d_1505_178)">
<path d="M30.5 0C-17.2803 0 -56 36.8773 -56 82.3851C-56 127.893 -17.2637 164.77 30.5 164.77C78.2637 164.77 117 127.893 117 82.3851C117 36.8773 78.2637 0 30.5 0ZM30.5 149.675C-8.53556 149.675 -40.173 119.547 -40.173 82.3693C-40.173 45.1917 -8.53556 15.0639 30.5 15.0639C69.5356 15.0639 101.173 45.1917 101.173 82.3693C101.173 119.547 69.5356 149.675 30.5 149.675Z" fill="#F7E7D8"/>
</g>
<defs>
<filter id="filter0_d_1505_178" x="-56.7969" y="77.6135" width="262.932" height="250.453" filterUnits="userSpaceOnUse" color-interpolation-filters="sRGB">
<feFlood flood-opacity="0" result="BackgroundImageFix"/>
<feColorMatrix in="SourceAlpha" type="matrix" values="0 0 0 0 0 0 0 0 0 0 0 0 0 0 0 0 0 0 127 0" result="hardAlpha"/>
<feOffset dy="4"/>
<feGaussianBlur stdDeviation="2"/>
<feComposite in2="hardAlpha" operator="out"/>
<feColorMatrix type="matrix" values="0 0 0 0 0 0 0 0 0 0 0 0 0 0 0 0 0 0 0.25 0"/>
<feBlend mode="normal" in2="BackgroundImageFix" result="effect1_dropShadow_1505_178"/>
<feBlend mode="normal" in="SourceGraphic" in2="effect1_dropShadow_1505_178" result="shape"/>
</filter>
<filter id="filter1_d_1505_178" x="-60" y="0" width="181" height="172.77" filterUnits="userSpaceOnUse" color-interpolation-filters="sRGB">
<feFlood flood-opacity="0" result="BackgroundImageFix"/>
<feColorMatrix in="SourceAlpha" type="matrix" values="0 0 0 0 0 0 0 0 0 0 0 0 0 0 0 0 0 0 127 0" result="hardAlpha"/>
<feOffset dy="4"/>
<feGaussianBlur stdDeviation="2"/>
<feComposite in2="hardAlpha" operator="out"/>
<feColorMatrix type="matrix" values="0 0 0 0 0 0 0 0 0 0 0 0 0 0 0 0 0 0 0.25 0"/>
<feBlend mode="normal" in2="BackgroundImageFix" result="effect1_dropShadow_1505_178"/>
<feBlend mode="normal" in="SourceGraphic" in2="effect1_dropShadow_1505_178" result="shape"/>
</filter>
</defs>
</svg>
