<svg width="431" height="406" viewBox="0 0 431 406" fill="none" xmlns="http://www.w3.org/2000/svg">
<g filter="url(#filter0_d_1505_179)">
<path d="M142.168 270.42C63.6478 195.635 63.4531 74.5803 141.758 1.98394e-05L181.791 38.128C125.551 91.6924 125.688 178.679 182.09 232.398C238.491 286.116 329.823 286.247 386.063 232.682L426.095 270.81C347.813 345.368 220.689 345.205 142.168 270.42Z" fill="#F9C846"/>
</g>
<g filter="url(#filter1_d_1505_179)">
<path d="M252.103 71.8802L233.938 76.8662L269.165 201.536L287.331 196.55L252.103 71.8802Z" fill="#F07167"/>
<path d="M195.112 144.861L200.268 163.09L326.124 128.577L320.968 110.349L195.112 144.861Z" fill="#F07167"/>
<path d="M322.185 160.519L312.93 176.884L199.072 112.901L208.342 96.5446L322.185 160.519Z" fill="#F07167"/>
<path d="M237.021 197.667L220.474 188.366L284.251 75.7617L300.783 85.0542L237.021 197.667Z" fill="#F07167"/>
</g>
<defs>
<filter id="filter0_d_1505_179" x="79.1543" y="0" width="350.941" height="334.619" filterUnits="userSpaceOnUse" color-interpolation-filters="sRGB">
<feFlood flood-opacity="0" result="BackgroundImageFix"/>
<feColorMatrix in="SourceAlpha" type="matrix" values="0 0 0 0 0 0 0 0 0 0 0 0 0 0 0 0 0 0 127 0" result="hardAlpha"/>
<feOffset dy="4"/>
<feGaussianBlur stdDeviation="2"/>
<feComposite in2="hardAlpha" operator="out"/>
<feColorMatrix type="matrix" values="0 0 0 0 0 0 0 0 0 0 0 0 0 0 0 0 0 0 0.25 0"/>
<feBlend mode="normal" in2="BackgroundImageFix" result="effect1_dropShadow_1505_179"/>
<feBlend mode="normal" in="SourceGraphic" in2="effect1_dropShadow_1505_179" result="shape"/>
</filter>
<filter id="filter1_d_1505_179" x="191.113" y="71.8801" width="139.01" height="137.656" filterUnits="userSpaceOnUse" color-interpolation-filters="sRGB">
<feFlood flood-opacity="0" result="BackgroundImageFix"/>
<feColorMatrix in="SourceAlpha" type="matrix" values="0 0 0 0 0 0 0 0 0 0 0 0 0 0 0 0 0 0 127 0" result="hardAlpha"/>
<feOffset dy="4"/>
<feGaussianBlur stdDeviation="2"/>
<feComposite in2="hardAlpha" operator="out"/>
<feColorMatrix type="matrix" values="0 0 0 0 0 0 0 0 0 0 0 0 0 0 0 0 0 0 0.25 0"/>
<feBlend mode="normal" in2="BackgroundImageFix" result="effect1_dropShadow_1505_179"/>
<feBlend mode="normal" in="SourceGraphic" in2="effect1_dropShadow_1505_179" result="shape"/>
</filter>
</defs>
</svg>
