<svg width="1338" height="294" viewBox="0 0 1338 294" fill="none" xmlns="http://www.w3.org/2000/svg">
<g filter="url(#filter0_d_1523_177)">
<path d="M403.55 284.2C420.422 284.2 434.1 270.5 434.1 253.6C434.1 236.7 420.422 223 403.55 223C386.678 223 373 236.7 373 253.6C373 270.5 386.678 284.2 403.55 284.2Z" fill="#D9DEED"/>
<path d="M403.55 327.09C420.422 327.09 434.1 313.39 434.1 296.49C434.1 279.59 420.422 265.89 403.55 265.89C386.678 265.89 373 279.59 373 296.49C373 313.39 386.678 327.09 403.55 327.09Z" fill="#D9DEED"/>
<path d="M450.919 284.2C467.791 284.2 481.469 270.5 481.469 253.6C481.469 236.7 467.791 223 450.919 223C434.047 223 420.369 236.7 420.369 253.6C420.369 270.5 434.047 284.2 450.919 284.2Z" fill="#D9DEED"/>
<path d="M450.919 327.09C467.791 327.09 481.469 313.39 481.469 296.49C481.469 279.59 467.791 265.89 450.919 265.89C434.047 265.89 420.369 279.59 420.369 296.49C420.369 313.39 434.047 327.09 450.919 327.09Z" fill="#D9DEED"/>
<path d="M427.24 281.14C430.598 281.14 433.32 278.413 433.32 275.05C433.32 271.687 430.598 268.96 427.24 268.96C423.882 268.96 421.16 271.687 421.16 275.05C421.16 278.413 423.882 281.14 427.24 281.14Z" fill="#D9DEED"/>
</g>
<g opacity="0.8" filter="url(#filter1_d_1523_177)">
<path d="M1235.58 121.297C1264.07 146.539 1307.98 143.908 1333.67 115.409L1319.15 102.539C1300.7 123.007 1269.14 124.9 1248.68 106.767C1228.22 88.6354 1226.58 57.3378 1245.03 36.8696L1230.5 24C1204.82 52.4902 1207.09 96.0538 1235.58 121.297Z" fill="#F7E5C2"/>
</g>
<g filter="url(#filter2_d_1523_177)">
<path d="M963.76 149.293L970.083 143.845C971.833 142.342 974.53 142.914 975.521 145.008L979.093 152.562C979.831 154.127 981.602 154.921 983.256 154.424L991.233 152.033C993.446 151.366 995.67 152.995 995.733 155.312L995.933 163.68C995.976 165.415 997.272 166.854 998.979 167.076L1007.23 168.155C1009.52 168.452 1010.9 170.853 1010.01 172.99L1006.82 180.713C1006.16 182.31 1006.76 184.162 1008.22 185.061L1015.32 189.42C1017.29 190.626 1017.58 193.387 1015.9 194.974L1009.85 200.729C1008.6 201.924 1008.4 203.85 1009.38 205.278L1014.1 212.165C1015.41 214.069 1014.55 216.703 1012.38 217.475L1004.53 220.258C1002.91 220.829 1001.94 222.511 1002.26 224.225L1003.78 232.445C1004.21 234.719 1002.36 236.782 1000.06 236.592L991.771 235.926C990.053 235.788 988.494 236.931 988.093 238.613L986.165 246.748C985.627 249.001 983.109 250.133 981.085 249.023L973.782 245.024C972.265 244.198 970.378 244.6 969.335 245.976L964.277 252.619C962.875 254.46 960.125 254.46 958.723 252.619L953.665 245.976C952.622 244.6 950.725 244.198 949.218 245.024L941.915 249.023C939.891 250.133 937.373 249.001 936.835 246.748L934.907 238.613C934.506 236.931 932.947 235.788 931.229 235.926L922.936 236.592C920.638 236.782 918.794 234.719 919.216 232.445L920.744 224.225C921.06 222.522 920.09 220.84 918.467 220.258L910.616 217.475C908.446 216.703 907.592 214.069 908.899 212.165L913.62 205.278C914.6 203.85 914.4 201.914 913.146 200.729L907.097 194.974C905.421 193.387 905.706 190.626 907.676 189.42L914.779 185.061C916.254 184.162 916.844 182.31 916.181 180.713L912.988 172.99C912.102 170.853 913.483 168.452 915.77 168.155L924.021 167.076C925.728 166.854 927.024 165.405 927.067 163.68L927.267 155.312C927.319 152.995 929.554 151.366 931.767 152.033L939.744 154.424C941.398 154.921 943.158 154.127 943.907 152.562L947.479 145.008C948.47 142.914 951.167 142.342 952.917 143.845L959.24 149.293C960.546 150.425 962.485 150.425 963.792 149.293H963.76Z" fill="#F7DDCF"/>
</g>
<g filter="url(#filter3_d_1523_177)">
<path d="M85.8895 7.09637L67.248 5.29614L54.8392 133.79L73.4807 135.59L85.8895 7.09637Z" fill="#FFD6D6"/>
<path d="M7.10458 54.914L5.30078 73.5924L133.585 85.981L135.389 67.3026L7.10458 54.914Z" fill="#FFD6D6"/>
<path d="M118.553 114.288L104.107 126.224L22.1632 26.597L36.6208 14.6745L118.553 114.288Z" fill="#FFD6D6"/>
<path d="M26.5715 118.736L14.6636 104.255L114.156 22.1621L126.053 36.6297L26.5715 118.736Z" fill="#FFD6D6"/>
</g>
<defs>
<filter id="filter0_d_1523_177" x="369" y="223" width="116.469" height="112.09" filterUnits="userSpaceOnUse" color-interpolation-filters="sRGB">
<feFlood flood-opacity="0" result="BackgroundImageFix"/>
<feColorMatrix in="SourceAlpha" type="matrix" values="0 0 0 0 0 0 0 0 0 0 0 0 0 0 0 0 0 0 127 0" result="hardAlpha"/>
<feOffset dy="4"/>
<feGaussianBlur stdDeviation="2"/>
<feComposite in2="hardAlpha" operator="out"/>
<feColorMatrix type="matrix" values="0 0 0 0 0 0 0 0 0 0 0 0 0 0 0 0 0 0 0.25 0"/>
<feBlend mode="normal" in2="BackgroundImageFix" result="effect1_dropShadow_1523_177"/>
<feBlend mode="normal" in="SourceGraphic" in2="effect1_dropShadow_1523_177" result="shape"/>
</filter>
<filter id="filter1_d_1523_177" x="1208.64" y="24" width="129.037" height="122.632" filterUnits="userSpaceOnUse" color-interpolation-filters="sRGB">
<feFlood flood-opacity="0" result="BackgroundImageFix"/>
<feColorMatrix in="SourceAlpha" type="matrix" values="0 0 0 0 0 0 0 0 0 0 0 0 0 0 0 0 0 0 127 0" result="hardAlpha"/>
<feOffset dy="4"/>
<feGaussianBlur stdDeviation="2"/>
<feComposite in2="hardAlpha" operator="out"/>
<feColorMatrix type="matrix" values="0 0 0 0 0 0 0 0 0 0 0 0 0 0 0 0 0 0 0.25 0"/>
<feBlend mode="normal" in2="BackgroundImageFix" result="effect1_dropShadow_1523_177"/>
<feBlend mode="normal" in="SourceGraphic" in2="effect1_dropShadow_1523_177" result="shape"/>
</filter>
<filter id="filter2_d_1523_177" x="902" y="143" width="119" height="119" filterUnits="userSpaceOnUse" color-interpolation-filters="sRGB">
<feFlood flood-opacity="0" result="BackgroundImageFix"/>
<feColorMatrix in="SourceAlpha" type="matrix" values="0 0 0 0 0 0 0 0 0 0 0 0 0 0 0 0 0 0 127 0" result="hardAlpha"/>
<feOffset dy="4"/>
<feGaussianBlur stdDeviation="2"/>
<feComposite in2="hardAlpha" operator="out"/>
<feColorMatrix type="matrix" values="0 0 0 0 0 0 0 0 0 0 0 0 0 0 0 0 0 0 0.25 0"/>
<feBlend mode="normal" in2="BackgroundImageFix" result="effect1_dropShadow_1523_177"/>
<feBlend mode="normal" in="SourceGraphic" in2="effect1_dropShadow_1523_177" result="shape"/>
</filter>
<filter id="filter3_d_1523_177" x="1.30078" y="5.29614" width="138.088" height="138.294" filterUnits="userSpaceOnUse" color-interpolation-filters="sRGB">
<feFlood flood-opacity="0" result="BackgroundImageFix"/>
<feColorMatrix in="SourceAlpha" type="matrix" values="0 0 0 0 0 0 0 0 0 0 0 0 0 0 0 0 0 0 127 0" result="hardAlpha"/>
<feOffset dy="4"/>
<feGaussianBlur stdDeviation="2"/>
<feComposite in2="hardAlpha" operator="out"/>
<feColorMatrix type="matrix" values="0 0 0 0 0 0 0 0 0 0 0 0 0 0 0 0 0 0 0.25 0"/>
<feBlend mode="normal" in2="BackgroundImageFix" result="effect1_dropShadow_1523_177"/>
<feBlend mode="normal" in="SourceGraphic" in2="effect1_dropShadow_1523_177" result="shape"/>
</filter>
</defs>
</svg>
