<svg width="63" height="61" viewBox="0 0 63 61" fill="none" xmlns="http://www.w3.org/2000/svg">
<path d="M49.252 10.1222H12.9604C10.8978 10.1222 8.91979 10.922 7.46136 12.3457C6.00293 13.7694 5.18359 15.7004 5.18359 17.7138V43.0191C5.18359 45.0326 6.00293 46.9635 7.46136 48.3872C8.91979 49.8109 10.8978 50.6107 12.9604 50.6107H49.252C51.3146 50.6107 53.2926 49.8109 54.7511 48.3872C56.2095 46.9635 57.0288 45.0326 57.0288 43.0191V17.7138C57.0288 15.7004 56.2095 13.7694 54.7511 12.3457C53.2926 10.922 51.3146 10.1222 49.252 10.1222ZM49.252 15.1833L32.4023 26.4947C32.0083 26.7169 31.5612 26.8338 31.1062 26.8338C30.6512 26.8338 30.2042 26.7169 29.8101 26.4947L12.9604 15.1833H49.252Z" fill="#431D01"/>
</svg>
