<svg width="105" height="500" viewBox="0 0 105 500" fill="none" xmlns="http://www.w3.org/2000/svg">
<path d="M59.6398 0.709961H44.5098V105H59.6398V0.709961Z" fill="#FFFAF4"/>
<path d="M0 45.2799L0 60.4399L104.12 60.4399V45.2799L0 45.2799Z" fill="#FFFAF4"/>
<path d="M94.2302 84.3699L83.5402 95.0899L9.91016 21.3399L20.6102 10.6299L94.2302 84.3699Z" fill="#FFFAF4"/>
<path d="M20.6102 95.0899L9.91016 84.3699L83.5402 10.6299L94.2302 21.3399L20.6102 95.0899Z" fill="#FFFAF4"/>
<path d="M73.4594 257.916C58.2156 257.916 45.8582 246.07 45.8582 231.458C45.8582 216.846 58.2156 205 73.4594 205C88.7031 205 101.061 216.846 101.061 231.458C101.061 246.07 88.7031 257.916 73.4594 257.916Z" fill="#FFFAF4"/>
<path d="M73.4594 295C58.2156 295 45.8582 283.154 45.8582 268.542C45.8582 253.93 58.2156 242.084 73.4594 242.084C88.7031 242.084 101.061 253.93 101.061 268.542C101.061 283.154 88.7031 295 73.4594 295Z" fill="#FFFAF4"/>
<path d="M30.6625 257.916C15.4188 257.916 3.06131 246.07 3.06131 231.458C3.06131 216.846 15.4188 205 30.6625 205C45.9062 205 58.2637 216.846 58.2637 231.458C58.2637 246.07 45.9062 257.916 30.6625 257.916Z" fill="#FFFAF4"/>
<path d="M30.6625 295C15.4188 295 3.06131 283.154 3.06131 268.542C3.06131 253.93 15.4188 242.084 30.6625 242.084C45.9062 242.084 58.2637 253.93 58.2637 268.542C58.2637 283.154 45.9062 295 30.6625 295Z" fill="#FFFAF4"/>
<path d="M36.0557 246.27C33.0219 246.27 30.5626 243.913 30.5626 241.004C30.5626 238.096 33.0219 235.739 36.0557 235.739C39.0895 235.739 41.5488 238.096 41.5488 241.004C41.5488 243.913 39.0895 246.27 36.0557 246.27Z" fill="#FFFAF4"/>
<path d="M59.6398 395H44.5098V499.29H59.6398V395Z" fill="#FFFAF4"/>
<path d="M0 439.57L0 454.73H104.12V439.57H0Z" fill="#FFFAF4"/>
<path d="M94.2302 478.66L83.5402 489.38L9.91016 415.63L20.6102 404.92L94.2302 478.66Z" fill="#FFFAF4"/>
<path d="M20.6102 489.38L9.91016 478.66L83.5402 404.92L94.2302 415.63L20.6102 489.38Z" fill="#FFFAF4"/>
</svg>
