<svg width="150" height="150" viewBox="0 0 150 150" fill="none" xmlns="http://www.w3.org/2000/svg">
<circle cx="75" cy="75" r="75" fill="#E9D8C9"/>
<g clip-path="url(#clip0_107_27)">
<path d="M65.6276 93.2648C65.6276 95.9157 65.6276 98.4914 65.6276 101.104H55.7539C55.605 98.7584 55.4586 96.4498 55.3008 93.9567C55.0758 94.3588 54.9415 94.6113 54.7966 94.8557C52.4443 98.8183 48.9988 101.163 44.4237 101.781C41.0275 102.239 37.752 101.815 34.6503 100.285C31.6329 98.7972 29.3987 96.5024 27.7642 93.595C26.4719 91.2969 25.7388 88.8143 25.3334 86.2192C24.9555 83.8022 24.9369 81.3706 25.089 78.9455C25.2751 75.9814 25.9241 73.1048 27.2511 70.4256C28.9035 67.0901 31.2809 64.4125 34.6334 62.7051C36.4119 61.7996 38.3054 61.2453 40.3049 61.0212C42.2462 60.8035 44.168 60.8327 46.0663 61.2745C49.651 62.1096 52.2946 64.2175 54.1372 67.3733C54.2464 67.5602 54.3564 67.7455 54.5725 67.9122V44.5203C55.1697 44.3495 64.7205 44.3164 65.6292 44.4774C65.6292 60.7048 65.6292 76.9476 65.6292 93.2648M36.0632 81.7088C36.0065 83.6088 36.2412 85.4716 36.8254 87.2801C37.6395 89.7991 39.1065 91.7848 41.5859 92.8894C43.1468 93.5845 44.8024 93.7115 46.4742 93.5343C48.7261 93.2948 50.5695 92.2752 51.9685 90.4756C53.0399 89.0983 53.6856 87.5261 54.1105 85.8511C54.5846 83.9818 54.6316 82.0762 54.5943 80.1633C54.5604 78.4397 54.3014 76.7502 53.6743 75.1439C52.2865 71.5908 49.7918 69.4424 45.8697 69.2587C43.5676 69.1511 41.4418 69.7127 39.6325 71.2226C38.1493 72.4607 37.281 74.0936 36.7283 75.8997C36.1651 77.7406 35.9904 79.6389 36.0624 81.7088H36.0632Z" fill="#65A587"/>
<path d="M114.959 65.3787C115.544 66.1742 116.16 66.9493 116.709 67.7699C118.605 70.6085 119.676 73.7425 120.06 77.1313C120.27 78.99 120.27 80.852 120.14 82.705C119.911 85.9741 119.06 89.0684 117.019 91.7096C114.86 94.5029 112.057 96.2111 108.488 96.5793C106.493 96.7848 104.565 96.5834 102.785 95.6455C100.902 94.6534 99.8343 93.048 99.5794 90.9223C99.5673 90.8236 99.5713 90.7224 99.5495 90.6269C99.5163 90.4829 99.4678 90.3421 99.4014 90.1196C99.276 90.3203 99.174 90.4716 99.0834 90.6294C97.4197 93.5198 94.9833 95.3785 91.6478 95.7402C87.8648 96.1512 84.7082 94.5936 82.9409 90.7524C82.0428 88.7998 81.7879 86.7105 81.8405 84.5839C81.9157 81.5066 82.6521 78.6024 84.2081 75.9273C85.5781 73.5725 87.3955 71.6912 89.9404 70.6053C91.019 70.1456 92.1511 69.928 93.3244 69.8074C94.8457 69.6512 96.2909 69.847 97.6835 70.428C99.5179 71.1935 100.807 72.4971 101.43 74.4149C101.483 74.5784 101.547 74.7386 101.658 75.0461C102.031 74.2005 102.118 73.4067 102.31 72.6452C102.503 71.8773 102.702 71.111 102.903 70.3269H111.377C111.097 71.5641 110.838 72.7455 110.564 73.9245C109.517 78.4374 108.46 82.9478 107.42 87.4622C107.242 88.2342 107.136 89.0134 107.325 89.8153C107.564 90.8365 108.204 91.4766 109.239 91.6174C110.457 91.7833 111.55 91.4847 112.519 90.724C113.569 89.9003 114.198 88.7893 114.691 87.582C115.366 85.932 115.63 84.2004 115.727 82.4339C115.753 81.9654 115.829 81.4969 115.824 81.0292C115.791 77.9284 115.368 74.9004 113.993 72.0772C111.881 67.7432 108.424 64.9968 103.858 63.5937C101.097 62.7456 98.2588 62.532 95.3976 62.7367C92.5589 62.9398 89.8134 63.5872 87.2434 64.8495C85.7464 65.5851 84.3562 66.4897 83.1052 67.6048C79.5391 70.7833 77.5971 74.8033 76.9077 79.4812C76.3647 83.163 76.5128 86.806 77.7096 90.3462C79.2009 94.757 82.0484 98.0342 86.2117 100.151C88.8359 101.485 91.6243 102.2 94.5552 102.382C95.1475 102.418 95.7398 102.465 96.3322 102.484C100.319 102.609 103.97 101.512 107.352 99.4406C107.454 99.3775 107.558 99.3176 107.733 99.214C108.453 100.402 109.155 101.557 109.892 102.774C109.63 102.959 109.422 103.125 109.197 103.263C106.237 105.079 103.062 106.268 99.5794 106.566C95.0148 106.958 90.5174 106.716 86.1469 105.196C83.0049 104.102 80.2108 102.435 77.8504 100.088C75.2415 97.4945 73.5115 94.3686 72.5154 90.8422C71.6868 87.9073 71.4448 84.9019 71.5727 81.8602C71.6965 78.9382 72.2451 76.1069 73.3715 73.4018C75.4981 68.2958 78.9484 64.3583 83.7954 61.671C86.7822 60.0154 89.9898 59.0525 93.377 58.6406C95.1297 58.4278 96.8865 58.321 98.644 58.4084C101.984 58.5751 105.228 59.2135 108.343 60.6134C108.396 60.6053 108.39 60.607 108.41 60.6539C108.495 60.7202 108.56 60.7405 108.66 60.7906C108.928 60.9606 109.167 61.0908 109.392 61.2405C110.584 62.0327 111.794 62.7998 112.953 63.6382C113.61 64.1132 114.18 64.7087 114.806 65.2857C114.87 65.3439 114.916 65.3658 114.963 65.3844C114.963 65.3811 114.957 65.3779 114.957 65.3779M97.5451 88.0036C97.83 87.6289 98.1577 87.2793 98.3924 86.8756C99.7081 84.6131 100.37 82.179 100.057 79.5581C99.7348 76.8643 97.7393 75.708 95.2827 76.2048C94.0745 76.4492 93.182 77.2001 92.4667 78.1493C90.7027 80.4911 89.9979 83.1347 90.3709 86.0429C90.6088 87.9008 91.8379 89.1777 93.6724 89.4755C95.1839 89.7207 96.4487 89.1947 97.5451 88.0036Z" fill="#F96F47"/>
<path d="M90.4567 48.139C90.7682 48.4594 91.0425 48.7418 91.312 49.0194C85.7844 55.908 74.3555 55.8659 68.8619 49.0429C69.3312 48.3761 69.9559 47.8509 70.5895 47.3468C73.1231 45.3303 75.9803 44.1894 79.2462 44.0227C81.8275 43.8908 84.2664 44.3504 86.5871 45.442C88.0072 46.1104 89.2898 47.0021 90.4558 48.1398M78.0356 49.1432C76.728 49.0477 75.4204 48.9555 74.1127 48.8551C73.4961 48.8082 72.8819 48.7265 72.2645 48.7038C72.1067 48.6981 71.8373 48.8268 71.8041 48.9458C71.7353 49.1926 71.9773 49.2565 72.1844 49.2767C73.7348 49.4248 75.2844 49.6716 76.8372 49.6959C79.3643 49.7355 81.8947 49.6546 84.4217 49.5721C85.6007 49.534 86.7749 49.3738 87.9514 49.2686C84.688 49.2702 81.4318 49.4208 78.0348 49.1432H78.0356Z" fill="#66A688"/>
<path d="M114.79 65.2508C114.181 64.7095 113.611 64.1147 112.954 63.6389C111.796 62.8006 110.585 62.0335 109.393 61.2413C109.168 61.0916 108.93 60.9613 108.636 60.7445C108.514 60.6466 108.453 60.6271 108.392 60.6069C108.392 60.6069 108.399 60.6053 108.4 60.6069C108.395 60.4928 108.425 60.3577 108.377 60.263C107.812 59.1682 107.49 57.9997 107.415 56.7803C107.293 54.8277 107.755 53.0143 108.853 51.3385C109.677 51.5715 110.293 52.0716 110.867 52.6041C113.532 55.0753 114.318 58.1065 113.492 61.6022C113.475 61.6742 113.465 61.7487 113.425 61.8959C113.405 62.0052 113.413 62.04 113.421 62.0748L113.498 61.9817C113.672 61.8514 113.866 61.7406 114.018 61.5885C116.72 58.8744 121.134 58.3388 124.528 60.2711C124.675 60.3553 124.806 60.4702 125 60.6102C124.909 60.8165 124.848 61.0277 124.735 61.2065C122.992 63.965 120.516 65.462 117.225 65.5009C116.512 65.509 115.798 65.3932 115.021 65.3552C114.959 65.3763 114.964 65.3795 114.962 65.339C114.903 65.2816 114.846 65.2654 114.79 65.2492M111.534 61.5326C110.685 58.8931 109.979 56.2187 109.506 53.4804C109.46 53.6601 109.441 53.834 109.462 54.0031C109.702 55.9161 109.992 57.8209 110.552 59.6715C110.738 60.2873 110.95 60.8966 111.169 61.5019C111.216 61.6346 111.281 61.8959 111.533 61.5326M116.192 63.4302C117.979 62.9972 119.767 62.5627 121.427 61.7333C121.274 61.6977 121.137 61.7212 121.004 61.7576C119.859 62.0707 118.721 62.409 117.568 62.693C116.634 62.9228 115.682 63.0846 114.74 63.2869C114.628 63.3112 114.531 63.4043 114.34 63.5159C115.007 63.6996 115.533 63.5362 116.191 63.4294M121.783 61.5391L121.812 61.62C121.822 61.5925 121.831 61.5642 121.783 61.5391Z" fill="#67A689"/>
<path d="M108.412 60.6538C108.453 60.6271 108.514 60.6466 108.601 60.7129C108.562 60.7396 108.497 60.7202 108.412 60.6538Z" fill="white"/>
<path d="M114.807 65.2865C114.846 65.267 114.903 65.2832 114.962 65.3439C114.918 65.3666 114.871 65.3439 114.807 65.2865Z" fill="white"/>
<path d="M78.1069 49.1456C81.4326 49.4215 84.6896 49.2718 87.9522 49.2694C86.7757 49.3746 85.6007 49.534 84.4226 49.5728C81.8955 49.6546 79.3652 49.7355 76.8381 49.6966C75.2852 49.6724 73.7365 49.4264 72.1853 49.2775C71.9773 49.2573 71.7362 49.1933 71.8049 48.9465C71.8381 48.8276 72.1076 48.6989 72.2654 48.7046C72.8828 48.7272 73.4969 48.809 74.1135 48.8559C75.4204 48.9562 76.7288 49.0485 78.1077 49.1456H78.1069Z" fill="#BAD5BB"/>
<path d="M111.525 61.5868C111.282 61.8951 111.217 61.6346 111.169 61.5019C110.951 60.8966 110.739 60.2873 110.553 59.6715C109.993 57.8201 109.702 55.9161 109.463 54.0031C109.442 53.834 109.46 53.66 109.507 53.4804C109.979 56.2187 110.686 58.8939 111.525 61.5876L111.525 61.5868Z" fill="#B4D2B7"/>
<path d="M116.128 63.4367C115.534 63.537 115.008 63.7013 114.341 63.5168C114.531 63.4051 114.629 63.3121 114.741 63.2878C115.683 63.0847 116.635 62.9236 117.569 62.6938C118.722 62.4098 119.86 62.0716 121.005 61.7584C121.139 61.722 121.275 61.6985 121.428 61.7341C119.767 62.5636 117.98 62.9981 116.129 63.4367H116.128Z" fill="#B3D1B7"/>
<path d="M121.811 61.5383C121.83 61.565 121.821 61.5925 121.811 61.6208C121.801 61.5941 121.792 61.5666 121.811 61.5383Z" fill="#B3D1B7"/>
<path d="M113.489 61.9736C113.473 62.0141 113.447 62.0457 113.421 62.0764C113.413 62.0416 113.405 62.006 113.428 61.9575C113.458 61.9437 113.478 61.9631 113.489 61.9728V61.9736Z" fill="white"/>
</g>
<defs>
<clipPath id="clip0_107_27">
<rect width="100" height="62.7321" fill="white" transform="translate(25 44)"/>
</clipPath>
</defs>
</svg>
