<svg width="448" height="448" viewBox="0 0 448 448" fill="none" xmlns="http://www.w3.org/2000/svg">
<path d="M188.608 1.50417C175.071 3.45999 152.96 9.77884 138.521 15.7968C75.3486 41.674 26.3148 96.1364 7.96468 160.528C4.05401 174.52 -0.90954 201.3 0.143333 202.504C0.594565 202.804 1.64744 198.141 2.70031 192.123C10.8225 141.873 33.5345 97.9417 69.0313 63.6395C104.378 29.638 141.68 11.7347 198.986 1.50417C208.763 -0.150772 200.49 -0.150772 188.608 1.50417Z" fill="white"/>
<path d="M253.886 2.10605C287.728 9.47804 301.115 13.6906 320.818 23.3193C329.994 27.6823 340.823 33.7003 344.884 36.7092C349.096 39.5678 355.864 44.3821 360.076 47.2407C371.356 55.064 397.678 82.897 407.605 97.641C425.805 124.872 435.882 149.094 443.403 183.698C445.96 194.68 447.464 199.946 447.013 195.433C444.606 171.812 433.777 138.563 420.691 114.792C400.085 77.6313 363.685 42.1254 326.985 23.6202C305.477 12.7879 272.838 2.70786 252.382 0.752014L244.109 -0.000228882L253.886 2.10605Z" fill="white"/>
<path d="M230.271 128.934C222.45 131.793 211.771 138.864 211.771 141.271C211.771 143.227 219.592 148.342 227.714 152.103C241.552 158.121 260.353 155.112 273.439 144.431C277.049 141.572 277.049 141.422 274.342 138.413C265.467 128.633 244.109 123.97 230.271 128.934ZM258.699 133.598C265.919 136.607 269.679 140.368 268.175 142.776C267.723 143.678 264.414 145.785 260.955 147.59C253.735 151.351 235.987 152.254 230.121 148.944C225.458 146.386 227.113 144.431 233.58 145.183C236.438 145.333 238.845 145.032 238.845 144.13C238.845 143.377 234.784 142.776 229.97 142.776C218.539 142.776 215.982 139.917 227.113 139.466C232.527 139.315 233.43 139.014 230.271 138.714C227.564 138.413 225.308 137.51 225.308 136.908C225.308 136.156 227.564 134.501 230.271 133.147C236.889 129.987 250.577 130.138 258.699 133.598Z" fill="white"/>
<path d="M239.898 140.82C242.605 141.121 247.418 141.121 250.426 140.82C253.585 140.519 251.479 140.218 245.613 140.218C239.898 140.218 237.341 140.519 239.898 140.82Z" fill="white"/>
<path d="M169.806 154.36C170.107 186.255 171.01 196.636 172.815 193.778C173.567 192.574 174.168 178.583 174.168 162.635V133.749L177.778 132.244C181.99 130.74 193.571 131.041 196.429 132.846C198.986 134.351 198.986 284.348 196.429 286.906C194.323 289.012 184.095 289.313 180.185 287.207C178.53 286.304 177.026 283.295 176.424 279.684C174.77 269.905 172.664 271.109 172.664 281.79V291.72H187.404H201.994V209.725V127.731H185.75H169.506L169.806 154.36Z" fill="white"/>
<path d="M326.233 149.997C321.871 158.272 324.128 174.219 330.144 176.476C333.604 177.83 333.754 177.228 331.347 169.104C330.144 165.192 329.242 159.776 329.242 157.218C329.392 153.608 329.693 153.307 330.144 156.015C330.445 157.82 331.347 159.024 332.099 158.572C334.506 157.068 336.913 164.139 336.01 169.706C335.108 175.724 336.762 179.936 339.62 178.131C340.823 177.379 341.274 174.219 340.823 168.502C340.222 159.776 337.514 154.661 331.047 149.846C327.888 147.439 327.587 147.439 326.233 149.997Z" fill="white"/>
<path d="M277.199 169.856C237.792 178.582 214.629 211.982 220.344 251.7C225.157 285.551 248.02 305.411 284.87 307.818C300.363 308.721 310.44 306.915 322.623 301.048L330.595 297.286L327.587 292.623C326.083 290.065 324.127 287.959 323.526 288.109C322.924 288.109 319.014 289.764 314.802 291.87C308.184 295.03 305.176 295.481 290.736 295.481C275.846 295.481 273.289 295.03 265.016 291.268C242.154 280.737 230.572 257.718 234.483 230.487C239.146 197.689 263.813 178.582 298.708 180.839C329.693 182.645 347.441 201.902 347.291 233.195C347.14 253.055 341.124 264.639 330.746 264.639C320.969 264.489 320.818 261.028 328.79 227.328L334.656 202.955H322.323H309.989L308.936 209.124C307.733 216.646 308.786 218.451 311.042 212.584C311.944 210.177 313.599 207.769 314.501 207.168C317.058 205.513 327.286 205.663 328.339 207.469C328.79 208.221 328.038 214.239 326.684 220.558C325.331 227.027 323.075 237.709 321.57 244.328C318.713 258.019 319.314 262.382 324.88 266.595C331.798 271.71 343.079 265.692 347.591 254.559C356.165 232.744 349.697 203.858 333.152 190.317C322.172 181.441 313.749 178.432 297.204 177.68C279.305 176.927 265.317 180.538 254.337 188.963C245.162 196.034 242.755 198.893 237.491 208.973C223.202 236.957 230.271 272.914 252.983 288.711C268.626 299.393 295.7 302.703 313.298 296.083C322.172 292.773 324.88 293.074 321.57 296.986C315.704 304.057 285.171 306.614 268.175 301.649C248.321 295.782 237.19 286.605 229.068 269.905C225.157 261.781 224.556 258.922 224.104 242.824C223.503 225.823 223.804 224.018 227.564 214.991C236.438 193.778 249.674 181.742 271.935 174.972C280.659 172.264 305.025 172.264 315.103 174.972C324.88 177.529 326.835 175.573 318.111 172.113C310.741 169.104 286.374 167.75 277.199 169.856Z" fill="white"/>
<path d="M352.706 171.963C345.335 174.671 341.124 178.582 341.274 182.494C341.274 184.299 341.726 184.751 342.177 183.698C342.478 182.795 345.486 181.441 348.795 180.99C351.954 180.388 354.661 179.335 354.661 178.582C354.661 177.83 353.909 177.68 352.856 178.281C351.954 178.883 351.653 178.733 352.104 177.83C353.608 175.423 359.624 174.37 364.438 175.573L368.8 176.777L362.482 179.335C359.023 180.689 353.458 182.344 350.149 182.795C340.823 184.299 342.177 187.91 352.254 187.91C360.828 187.91 368.047 184.299 372.259 177.83C374.214 174.972 374.064 174.37 371.657 173.166C366.543 170.308 358.421 169.856 352.706 171.963Z" fill="white"/>
<path d="M117.765 178.582C112.35 180.237 107.687 183.547 101.069 190.167C88.8858 202.203 84.8247 213.486 84.8247 235.301C84.8247 255.461 88.7354 267.497 99.1137 278.781C118.216 299.693 151.757 299.392 167.4 278.179C173.416 269.905 171.762 269.754 162.888 277.878C145.741 293.525 123.33 294.578 105.581 280.286C93.5485 270.657 87.5321 252.001 88.8858 229.133C89.7883 214.088 93.5485 203.858 101.671 193.928C110.094 183.848 127.842 177.83 141.529 180.538C150.855 182.193 154.014 183.998 161.835 191.37C165.294 194.831 168.152 196.636 168.152 195.583C168.152 191.37 160.481 183.697 152.81 179.786C143.485 175.122 129.647 174.671 117.765 178.582Z" fill="white"/>
<path d="M344.132 190.769C344.132 191.822 345.787 195.583 347.892 199.043C353.758 208.973 356.165 219.053 356.165 233.195C356.165 244.78 355.714 247.036 351.352 255.762C345.335 267.648 337.815 273.365 326.534 274.719C316.156 275.923 310.29 273.365 305.326 265.542C300.964 258.471 299.159 260.426 302.92 268.4C306.229 275.471 312.395 278.48 323.075 278.48C336.311 278.48 348.795 270.506 355.112 257.718C362.332 243.426 361.429 218 353.307 201.751C348.795 192.875 344.132 187.308 344.132 190.769Z" fill="white"/>
<path d="M133.708 197.689C119.569 202.052 112.5 214.389 112.5 234.7C112.5 261.179 123.931 274.719 145.139 273.365C160.782 272.312 170.107 262.533 172.965 244.178C176.274 222.513 170.258 205.814 156.119 198.742C148.599 194.981 143.184 194.68 133.708 197.689ZM158.526 204.159C170.258 212.433 174.018 239.213 165.745 256.364C157.623 273.515 132.505 275.321 121.825 259.674C111.146 243.877 115.207 212.584 129.045 203.256C133.557 200.247 135.814 199.796 144.086 200.247C151.155 200.548 155.217 201.751 158.526 204.159Z" fill="white"/>
<path d="M270.581 205.362C249.975 215.743 242.304 251.55 257.044 268.4C262.76 274.87 269.98 277.277 279.155 275.923C284.72 275.171 287.578 273.516 292.692 268.25C296.903 264.188 299.009 260.878 298.407 259.373C297.956 258.17 299.31 253.807 301.416 249.745C307.733 236.957 306.229 221.912 298.107 218.15C283.065 211.38 267.573 227.629 270.581 247.037C272.386 258.019 277.35 262.232 287.277 261.329C295.399 260.427 296.001 261.179 291.188 265.692C285.622 270.657 281.561 272.162 273.59 272.162C259.902 272.162 253.284 262.683 253.435 243.426C253.886 212.133 283.667 193.176 301.265 213.035C305.477 217.85 306.53 214.841 302.619 209.124C296.753 200.849 282.915 199.194 270.581 205.362ZM299.009 222.513C301.265 224.77 302.017 227.478 302.017 233.045C302.017 252.603 287.578 265.241 277.199 254.86C270.581 248.391 272.838 231.992 281.561 223.266C286.375 218.451 294.647 218.15 299.009 222.513Z" fill="white"/>
<path d="M446.411 246.435C446.411 252.904 439.944 280.737 435.281 294.428C423.098 330.385 402.943 361.678 375.418 387.255C345.787 414.636 303.973 436.15 266.671 443.071C264.264 443.522 259.451 444.576 256.142 445.328C250.727 446.531 250.878 446.531 258.549 445.93C263.211 445.478 273.59 443.522 281.712 441.416C350.299 423.513 407.906 371.909 433.626 305.561C441.297 285.401 450.623 243.576 447.314 243.576C446.863 243.576 446.411 244.93 446.411 246.435Z" fill="white"/>
<path d="M1.94824 258.772C3.00111 271.259 9.61917 295.03 16.3876 311.278C43.4615 374.768 97.9101 422.761 163.489 440.664C179.132 445.027 202.445 449.089 203.649 447.735C204.1 447.434 199.136 446.231 192.669 445.177C158.074 439.761 126.639 427.274 96.7068 406.964C79.4096 395.379 52.9374 368.75 40.9046 351.147C23.3065 325.27 9.16794 291.87 3.60275 262.232C1.497 251.851 1.34659 251.4 1.94824 258.772Z" fill="white"/>
</svg>
