<svg width="1236" height="776" viewBox="0 0 1236 776" fill="none" xmlns="http://www.w3.org/2000/svg">
<g clip-path="url(#clip0_107_13)">
<rect x="-189" y="-154" width="1582" height="1325" fill="#D9D9D9"/>
<path d="M502.08 608.82C502.08 641.58 502.08 673.41 502.08 705.7H380.06C378.22 676.71 376.41 648.18 374.46 617.37C371.68 622.34 370.02 625.46 368.23 628.48C339.16 677.45 296.58 706.43 240.04 714.06C198.07 719.72 157.59 714.49 119.26 695.58C81.97 677.19 54.36 648.83 34.16 612.9C18.19 584.5 9.13 553.82 4.12 521.75C-0.550004 491.88 -0.780003 461.83 1.1 431.86C3.4 395.23 11.42 359.68 27.82 326.57C48.24 285.35 77.62 252.26 119.05 231.16C141.03 219.97 164.43 213.12 189.14 210.35C213.13 207.66 236.88 208.02 260.34 213.48C304.64 223.8 337.31 249.85 360.08 288.85C361.43 291.16 362.79 293.45 365.46 295.51V6.43C372.84 4.32 490.87 3.91 502.1 5.9C502.1 206.44 502.1 407.17 502.1 608.82M136.72 466.01C136.02 489.49 138.92 512.51 146.14 534.86C156.2 565.99 174.33 590.53 204.97 604.18C224.26 612.77 244.72 614.34 265.38 612.15C293.21 609.19 315.99 596.59 333.28 574.35C346.52 557.33 354.5 537.9 359.75 517.2C365.61 494.1 366.19 470.55 365.73 446.91C365.31 425.61 362.11 404.73 354.36 384.88C337.21 340.97 306.38 314.42 257.91 312.15C229.46 310.82 203.19 317.76 180.83 336.42C162.5 351.72 151.77 371.9 144.94 394.22C137.98 416.97 135.82 440.43 136.71 466.01H136.72Z" fill="white"/>
<path d="M1111.72 264.2C1118.95 274.03 1126.57 283.61 1133.35 293.75C1156.78 328.83 1170.01 367.56 1174.76 409.44C1177.36 432.41 1177.36 455.42 1175.75 478.32C1172.92 518.72 1162.4 556.96 1137.18 589.6C1110.5 624.12 1075.86 645.23 1031.75 649.78C1007.1 652.32 983.27 649.83 961.27 638.24C938 625.98 924.81 606.14 921.66 579.87C921.51 578.65 921.56 577.4 921.29 576.22C920.88 574.44 920.28 572.7 919.46 569.95C917.91 572.43 916.65 574.3 915.53 576.25C894.97 611.97 864.86 634.94 823.64 639.41C776.89 644.49 737.88 625.24 716.04 577.77C704.94 553.64 701.79 527.82 702.44 501.54C703.37 463.51 712.47 427.62 731.7 394.56C748.63 365.46 771.09 342.21 802.54 328.79C815.87 323.11 829.86 320.42 844.36 318.93C863.16 317 881.02 319.42 898.23 326.6C920.9 336.06 936.83 352.17 944.53 375.87C945.19 377.89 945.97 379.87 947.35 383.67C951.96 373.22 953.03 363.41 955.4 354C957.79 344.51 960.25 335.04 962.73 325.35H1067.45C1064 340.64 1060.79 355.24 1057.41 369.81C1044.47 425.58 1031.41 481.32 1018.56 537.11C1016.36 546.65 1015.05 556.28 1017.38 566.19C1020.34 578.81 1028.24 586.72 1041.04 588.46C1056.08 590.51 1069.59 586.82 1081.57 577.42C1094.54 567.24 1102.32 553.51 1108.41 538.59C1116.75 518.2 1120.02 496.8 1121.21 474.97C1121.53 469.18 1122.48 463.39 1122.41 457.61C1122 419.29 1116.78 381.87 1099.78 346.98C1073.69 293.42 1030.96 259.48 974.53 242.14C940.42 231.66 905.34 229.02 869.98 231.55C834.9 234.06 800.97 242.06 769.21 257.66C750.71 266.75 733.53 277.93 718.07 291.71C674 330.99 650 380.67 641.48 438.48C634.77 483.98 636.6 529 651.39 572.75C669.82 627.26 705.01 667.76 756.46 693.92C788.89 710.41 823.35 719.24 859.57 721.49C866.89 721.94 874.21 722.52 881.53 722.75C930.8 724.3 975.92 710.74 1017.71 685.14C1018.98 684.36 1020.26 683.62 1022.42 682.34C1031.32 697.02 1039.99 711.3 1049.11 726.33C1045.87 728.62 1043.29 730.67 1040.51 732.38C1003.93 754.82 964.7 769.51 921.66 773.2C865.25 778.04 809.67 775.05 755.66 756.26C716.83 742.75 682.3 722.14 653.13 693.14C620.89 661.09 599.51 622.46 587.2 578.88C576.96 542.61 573.97 505.47 575.55 467.88C577.08 431.77 583.86 396.78 597.78 363.35C624.06 300.25 666.7 251.59 726.6 218.38C763.51 197.92 803.15 186.02 845.01 180.93C866.67 178.3 888.38 176.98 910.1 178.06C951.38 180.12 991.47 188.01 1029.96 205.31C1030.62 205.21 1030.54 205.23 1030.79 205.81C1031.84 206.63 1032.64 206.88 1033.88 207.5C1037.19 209.6 1040.14 211.21 1042.92 213.06C1057.65 222.85 1072.61 232.33 1086.93 242.69C1095.05 248.56 1102.09 255.92 1109.83 263.05C1110.62 263.77 1111.19 264.04 1111.77 264.27C1111.77 264.23 1111.7 264.19 1111.7 264.19M896.52 543.8C900.04 539.17 904.09 534.85 906.99 529.86C923.25 501.9 931.43 471.82 927.56 439.43C923.58 406.14 898.92 391.85 868.56 397.99C853.63 401.01 842.6 410.29 833.76 422.02C811.96 450.96 803.25 483.63 807.86 519.57C810.8 542.53 825.99 558.31 848.66 561.99C867.34 565.02 882.97 558.52 896.52 543.8Z" fill="white"/>
<path d="M808.92 51.15C812.77 55.11 816.16 58.6 819.49 62.03C751.18 147.16 609.94 146.64 542.05 62.32C547.85 54.08 555.57 47.59 563.4 41.36C594.71 16.44 630.02 2.33996 670.38 0.279963C702.28 -1.35004 732.42 4.32996 761.1 17.82C778.65 26.08 794.5 37.1 808.91 51.16M655.42 63.56C639.26 62.38 623.1 61.24 606.94 60C599.32 59.42 591.73 58.41 584.1 58.13C582.15 58.06 578.82 59.65 578.41 61.12C577.56 64.17 580.55 64.96 583.11 65.21C602.27 67.04 621.42 70.09 640.61 70.39C671.84 70.88 703.11 69.88 734.34 68.86C748.91 68.39 763.42 66.41 777.96 65.11C737.63 65.13 697.39 66.99 655.41 63.56H655.42Z" fill="white"/>
<path d="M1109.64 262.62C1102.11 255.93 1095.07 248.58 1086.95 242.7C1072.63 232.34 1057.67 222.86 1042.94 213.07C1040.16 211.22 1037.21 209.61 1033.58 206.93C1032.07 205.72 1031.32 205.48 1030.57 205.23C1030.57 205.23 1030.65 205.21 1030.67 205.23C1030.61 203.82 1030.98 202.15 1030.38 200.98C1023.4 187.45 1019.42 173.01 1018.49 157.94C1016.99 133.81 1022.7 111.4 1036.27 90.6899C1046.45 93.5699 1054.06 99.7499 1061.15 106.33C1094.09 136.87 1103.8 174.33 1093.59 217.53C1093.38 218.42 1093.26 219.34 1092.76 221.16C1092.52 222.51 1092.62 222.94 1092.71 223.37L1093.67 222.22C1095.82 220.61 1098.21 219.24 1100.09 217.36C1133.48 183.82 1188.03 177.2 1229.98 201.08C1231.8 202.12 1233.41 203.54 1235.81 205.27C1234.69 207.82 1233.93 210.43 1232.53 212.64C1211 246.73 1180.4 265.23 1139.73 265.71C1130.92 265.81 1122.09 264.38 1112.49 263.91C1111.72 264.17 1111.79 264.21 1111.76 263.71C1111.03 263 1110.33 262.8 1109.63 262.6M1069.39 216.67C1058.91 184.05 1050.18 151 1044.33 117.16C1043.76 119.38 1043.53 121.53 1043.79 123.62C1046.76 147.26 1050.34 170.8 1057.26 193.67C1059.56 201.28 1062.18 208.81 1064.88 216.29C1065.47 217.93 1066.27 221.16 1069.38 216.67M1126.96 240.12C1149.05 234.77 1171.14 229.4 1191.66 219.15C1189.76 218.71 1188.07 219 1186.43 219.45C1172.28 223.32 1158.21 227.5 1143.97 231.01C1132.42 233.85 1120.66 235.85 1109.02 238.35C1107.63 238.65 1106.43 239.8 1104.07 241.18C1112.31 243.45 1118.82 241.43 1126.95 240.11M1196.05 216.75L1196.41 217.75C1196.53 217.41 1196.65 217.06 1196.05 216.75Z" fill="white"/>
<path d="M1030.82 205.81C1031.32 205.48 1032.08 205.72 1033.15 206.54C1032.67 206.87 1031.87 206.63 1030.82 205.81Z" fill="white"/>
<path d="M1109.85 263.06C1110.33 262.82 1111.03 263.02 1111.76 263.77C1111.21 264.05 1110.64 263.77 1109.85 263.06Z" fill="white"/>
<path d="M1196.4 216.74C1196.64 217.07 1196.52 217.41 1196.4 217.76C1196.28 217.43 1196.16 217.09 1196.4 216.74Z" fill="#B3D1B7"/>
<path d="M1093.55 222.12C1093.36 222.62 1093.04 223.01 1092.71 223.39C1092.62 222.96 1092.52 222.52 1092.8 221.92C1093.17 221.75 1093.42 221.99 1093.55 222.11V222.12Z" fill="white"/>
</g>
<defs>
<clipPath id="clip0_107_13">
<rect width="1235.81" height="775.25" fill="white"/>
</clipPath>
</defs>
</svg>
