<?xml version="1.0" encoding="UTF-8"?>
<svg id="Layer_1" data-name="Layer 1" xmlns="http://www.w3.org/2000/svg" viewBox="0 0 1682.6 266.77">
  <defs>
    <style>
      .cls-1 {
        fill: #fff;
      }

      .cls-1, .cls-2 {
        stroke-width: 0px;
      }

      .cls-2 {
        fill: #e9d8c9;
      }
    </style>
  </defs>
  <path class="cls-2" d="M979.18,27.89c6.85-.31,13.5-.98,20.12-.85,13.9.27,27.65,1.97,41.01,6.07,1.3.4,2.63.73,4.22,1.17-.49-2.6-1.03-5.01-1.39-7.45-1.35-9.27.44-17.91,5.29-25.92.65-1.08,1.41-1.15,2.48-.51,9.18,5.47,15.7,13.07,18.64,23.47,1.95,6.9,1.82,13.87.25,20.84-.1.42-.17.85-.13,1.72,15.68-14.12,32.55-15.98,51.07-5.81-6.64,12.59-16.66,19.7-30.23,21.77,3.35,4.34,6.77,8.42,9.82,12.77,8.55,12.22,13.65,25.88,16.07,40.54,1.52,9.23,1.9,18.58,1.37,27.9-.72,12.8-3.18,25.29-9.19,36.79-5.41,10.35-12.97,18.68-23.79,23.6-5.02,2.28-10.34,3.52-15.87,4.11-6.53.7-12.97.6-19.32-.98-12.78-3.18-21.68-10.87-26.33-23.29-.11-.28-.29-.53-.28-.52-2.82,3.74-5.44,7.76-8.61,11.29-5.76,6.42-13.24,9.98-21.64,11.52-11.87,2.17-23.46,1.07-34.45-4.02-9.02-4.18-16.12-10.67-21.37-19.17-4.19-6.79-7.07-14.1-7.88-22.03-.67-6.6-1.13-13.28-.9-19.9.45-12.52,3.72-24.29,11.7-34.28,7.75-9.71,17.86-15.49,30.15-17.6,8.66-1.49,17.21-1.19,25.57,1.36,13.6,4.16,22.65,13.41,28.25,26.27.08.18.19.35.56,1.03v-24.3h30.83v2.68c0,23.11-.05,46.22.05,69.32.02,4.13,1,8.11,5.13,10.31,3.88,2.07,10.41.85,13.95-2.32,4.78-4.27,6.61-9.98,8.03-15.89,2.15-8.94,2.27-18.07,1.76-27.14-.55-9.77-2.5-19.3-6.72-28.3-3.55-7.56-8.07-14.42-14.05-20.19-7.45-7.18-16.18-12.45-25.86-16.17-9.1-3.51-18.56-5.61-28.2-6.42-7.2-.61-14.49-.25-21.74-.14-9.21.14-18.16,1.95-26.95,4.57-9.91,2.95-18.99,7.49-27.24,13.79-9.45,7.23-16.44,16.34-21.49,27-3.82,8.06-6.3,16.55-7.26,25.41-.68,6.29-1.46,12.62-1.31,18.92.32,14.15,2.74,27.93,9.36,40.66,6.97,13.42,16.99,24.02,30.02,31.72,10.92,6.45,22.69,10.63,35.3,12,7.65.83,15.4,1.57,23.06,1.27,8.64-.34,17.22-1.89,25.83-2.91.74-.09,1.49-.09,2.43-.14.05.95.12,1.69.12,2.44,0,9.14-.05,18.27.05,27.41.02,1.84-.59,2.67-2.35,2.84-8.26.76-16.51,1.77-24.79,2.24-6.46.37-13,.51-19.44-.02-15.97-1.3-31.44-4.8-46.16-11.43-10.96-4.94-20.93-11.28-29.98-19.2-11.78-10.31-20.47-22.75-26.85-36.97-4.07-9.06-6.69-18.52-8.34-28.23-.94-5.54-1.19-11.21-1.48-16.84-.23-4.55-.08-9.13-.04-13.69.1-10.97,1.96-21.68,4.93-32.21,3.33-11.8,8.56-22.7,15.64-32.73,9.1-12.88,20.53-23.12,34.24-30.91,10.25-5.82,21.06-10.2,32.54-12.73,7.11-1.56,14.38-2.42,21.8-3.6M994.23,174.95c8.53-1.02,16.38-8.17,18.68-16.48,1.57-5.66,1.56-11.39,1.18-17.08-.35-5.14-2.13-9.97-5.91-13.83-5.56-5.66-12.33-7.98-20.15-7.54-8.65.49-15.31,4.28-19.43,12.02-3.29,6.18-4.15,12.76-3.28,19.73.78,6.27,3.01,11.85,7.17,16.51,5.71,6.4,13.21,7.76,21.74,6.66M1086.17,51.76c3.68-1.05,7.37-2.11,11.05-3.16-.04-.15-.08-.3-.13-.44-5.89,1.4-11.78,2.81-17.66,4.21.05.26.1.51.15.77,2.07-.44,4.14-.87,6.59-1.38M1053.92,23.88c1.26,5.31,2.12,10.74,4.24,15.79.18-.05.36-.11.55-.16-1.57-5.86-3.14-11.72-4.85-18.1,0,1.06,0,1.59.07,2.48Z"/>
  <path class="cls-2" d="M159.65,144.78c-2.11,5.6-3.89,11.16-6.36,16.4-3.14,6.65-7.51,12.53-12.43,18.04-12.69,14.21-28.73,22.6-47.01,26.73-7,1.58-14.33,2.27-21.52,2.41-23.16.43-46.33.41-69.49.56-.9,0-1.8,0-2.84,0V30.77c.91-.04,1.73-.11,2.54-.11,23.42,0,46.84-.31,70.24.11,14.48.26,28.6,3.03,41.96,9.12,9.15,4.17,17.46,9.55,24.47,16.68,11.27,11.45,18.2,25.24,21.49,41,2.17,10.39,1.94,20.86,1.62,31.3-.16,5.26-1.72,10.49-2.67,15.91M82.47,165.15c6.87-1.54,13.24-4.12,18.7-8.71,5-4.2,8.97-9.16,11.57-15.16,4.79-11.04,5.17-22.55,3.11-34.15-1.55-8.72-5.23-16.43-12.02-22.56-8.56-7.73-18.83-10.87-29.94-11.45-8.72-.45-17.49-.09-26.24-.09-.81,0-1.63.07-2.51.12v93.22c.57.07,1.01.16,1.45.16,8.59,0,17.19.13,25.78-.05,3.24-.07,6.47-.84,10.1-1.33Z"/>
  <path class="cls-2" d="M1606.3,170.99c-3.39-5.2-6.65-10.27-10.01-15.28-.45-.68-1.33-1.51-2.02-1.52-7.89-.11-15.79-.07-23.96-.07v53.23h-45.03V30.66h2.51c25.26,0,50.52-.28,75.77.11,14.86.23,29.28,3.21,42.35,10.83,13.51,7.87,21.76,19.5,24.74,34.89,1.41,7.26,1.66,14.59,1.3,21.92-.5,10.25-2.75,20.11-8.61,28.78-5.06,7.48-11.56,13.39-19.72,17.4-1.17.57-2.32,1.18-3.79,1.93,14.21,20.26,28.38,40.45,42.75,60.95-.92.04-1.49.09-2.05.09-15.89,0-31.78-.02-47.67.03-1.62,0-2.63-.45-3.56-1.87-7.58-11.56-15.26-23.06-23.01-34.72M1583.81,68.43h-13.4v50.67h2.68c9.44,0,18.87.03,28.31-.02,1.9,0,3.83-.11,5.68-.48,8.12-1.63,14-6.16,17.28-13.83,2.35-5.5,2.49-11.2,1.38-17.04-.95-4.98-3.19-9.24-6.85-12.64-5.59-5.18-12.52-6.67-19.89-6.66-4.91,0-9.82,0-15.19,0Z"/>
  <path class="cls-2" d="M688.07,189.58c-.07,11.11-.93,21.86-4.54,32.24-2.73,7.87-6.87,14.86-13.02,20.5-5.87,5.38-12.79,9.09-20.25,11.8-7.92,2.88-16.06,4.78-24.47,5.49-4.25.36-8.51.65-12.77.9-3.66.21-7.34.6-10.99.42-8.91-.44-17.8-1.14-26.7-1.78-3.03-.22-6.04-.57-9.19-.88v-36.91c2.63.19,5.18.31,7.72.56,4.09.39,8.16,1.07,12.26,1.24,7.65.32,15.31.46,22.97.48,7.77.02,15.39-1.2,22.54-4.3,8-3.47,13.12-9.58,14.4-18.25.76-5.12.56-10.37.82-16.26-2.04,2.81-3.59,5.08-5.29,7.24-5.98,7.62-13.78,12.53-23.13,14.73-4.79,1.13-9.76,1.98-14.66,2.01-9.2.07-18.29-1.29-26.66-5.42-9.62-4.75-17.23-11.79-22.77-21.01-5.08-8.45-8.2-17.59-9.04-27.38-.6-7-1.08-14.05-.86-21.06.33-10.37,2.47-20.48,7.21-29.79,8.14-16.01,20.61-27.15,38.27-31.38,11.49-2.76,23.18-2.64,34.59,1.15,6.72,2.24,12.61,5.96,17.5,11.01,4.74,4.9,8.35,10.66,11.01,17.09v-26.92h35.05v114.49M591.54,124.66c-3.44,8.48-3.87,17.17-1.72,26.01,1.83,7.52,5.79,13.45,12.52,17.56,6.82,4.17,14.21,4.87,21.66,3.27,10.36-2.22,17.24-8.66,20.34-18.97,1.71-5.69,1.4-11.5,1.31-17.29-.13-9.04-3.32-16.63-10.82-22.15-6.45-4.75-13.72-6.41-21.46-5.33-10.21,1.43-17.46,7.13-21.84,16.91Z"/>
  <path class="cls-2" d="M1494.98,78.29c2.23,6.68,3.8,13.31,4.3,20.43-.94.05-1.68.11-2.42.11-13.43,0-26.87-.03-40.3.05-1.81.01-2.47-.59-2.93-2.29-3.99-14.77-14.27-22.85-28.64-26.24-3.82-.9-7.85-1.44-11.76-1.37-9.87.19-19.29,2.29-27.09,8.85-7.36,6.19-12.08,14.09-14.43,23.43-1.72,6.85-2.62,13.83-2.27,20.85.53,10.68,2.5,21.02,8.66,30.16,6.07,9.02,14.42,14.73,24.95,16.91,9.86,2.04,19.78,1.76,29.36-1.67,11.47-4.11,19.96-11.37,23.62-23.44,1.15-3.79,1.19-3.77,5.12-3.77h40.91c-.87,6.91-2.18,13.36-4.52,19.59-4.4,11.73-11.18,21.88-20.37,30.4-6.8,6.3-14.56,11.12-22.99,14.89-7.57,3.39-15.56,5.45-23.76,6.43-8.11.97-16.23,1.33-24.45.67-8.88-.71-17.54-2.15-25.9-5.22-8.98-3.3-17.01-8.23-24.38-14.31-9.12-7.52-15.95-16.86-21.32-27.25-4.57-8.86-7.81-18.29-9.13-28.19-.92-6.94-1.42-13.99-1.39-20.98.07-13.15,2.59-25.9,7.69-38.09,4.73-11.31,11.52-21.24,20.55-29.5,7.78-7.12,16.68-12.59,26.66-16.21,7.63-2.77,15.45-4.72,23.59-5.06,6.42-.27,12.88-.79,19.27-.38,16.18,1.03,31.36,5.52,44.95,14.65,10.61,7.13,18.77,16.48,24.68,27.77,1.45,2.76,2.46,5.76,3.74,8.81Z"/>
  <path class="cls-2" d="M1279.43,193.62c-8.9,8.42-19.34,13.63-31.06,16.15-5.48,1.18-11.11,1.8-16.7,2.33-4.56.43-9.18.69-13.75.46-15.76-.8-30.84-3.98-44.13-13.18-11.43-7.92-19.37-18.46-24.1-31.48-2.56-7.05-4.26-14.3-4.65-21.81-.19-3.59-.44-7.17-.44-10.76-.03-33.39-.02-66.78-.02-100.17v-2.92h45.14v2.84c0,35-.24,70.01.13,105.01.13,11.91,5.49,21.61,16.71,26.98,8.06,3.86,16.66,3.93,25.34,2.4,7.95-1.41,14.25-5.46,18.71-12.08,3.71-5.51,5.39-11.85,5.41-18.44.09-34.54.04-69.08.04-103.63v-3.1h45.02c.04.86.12,1.67.12,2.49,0,35.31.29,70.62-.12,105.93-.2,16.8-4.78,32.57-15.33,46.12-1.87,2.4-4.12,4.52-6.31,6.88Z"/>
  <path class="cls-2" d="M219.17,155.87c1.63,5.35,3.8,10.2,7.72,14.08,3.83,3.8,8.55,5.83,13.78,6.7,5.56.92,11.08.59,16.55-.85,5.2-1.37,9.23-4.24,12.15-8.77.41-.64,1.34-1.34,2.03-1.34,12.59-.08,25.17-.06,37.76-.05.29,0,.59.1,1.06.19-1.52,7.66-4.41,14.67-8.91,20.93-9.23,12.83-21.66,20.77-37.13,24.06-7,1.49-14.05,2.12-21.16,1.76-11.49-.58-22.41-3.16-32.51-9.04-10.74-6.26-18.86-14.89-24.9-25.65-4.47-7.96-7.32-16.52-8.3-25.51-1.63-15-.44-29.72,5.98-43.69,5.93-12.9,14.84-23,27.24-30.01,9.86-5.57,20.4-8.17,31.7-8.47,9.06-.24,17.95.35,26.55,3.25,14.32,4.83,25.32,13.87,33.23,26.72,4.83,7.84,8.34,16.31,9.47,25.38,1.14,9.14,1.09,18.43,1.59,28.02h-94.3c.16.94.26,1.52.39,2.3M222.57,118.2c-1.42,3.66-2.84,7.31-4.4,11.32h52.84c-.12-.78-.18-1.38-.31-1.97-1.4-6.58-3.93-12.62-9.28-16.97-4.71-3.83-10.3-4.95-16.33-4.88-9.71.1-17.32,3.73-22.53,12.51Z"/>
  <path class="cls-2" d="M801.85,157.8c0-9.44-.07-18.65.02-27.86.09-9-5.19-15.93-11.3-18.48-8.27-3.45-17.82-1.57-23.54,4.51-3.43,3.64-5.21,8.12-5.22,13.1-.07,25.1-.03,50.2-.03,75.3v2.97h-44.07V75.05h34.76v30.66c2.06-6.5,4.44-12.75,8.35-18.3,6.57-9.31,15.59-14.81,26.84-16.15,9.74-1.15,19.51-1.32,28.98,2.17,9.63,3.55,16.73,9.89,21.57,18.87,4.04,7.51,6.2,15.57,6.93,24.02.43,4.94.87,9.89.89,14.84.09,24.41.04,48.82.04,73.23v2.94h-44.22v-49.55Z"/>
  <path class="cls-2" d="M327.98,182.46c-2.07-5.24-3.13-10.5-3.4-16.22.9-.06,1.63-.15,2.36-.15,11.36,0,22.73.02,34.09-.04,1.69,0,2.5.34,3.01,2.2,1.25,4.61,4.77,7.6,8.85,9.41,10.17,4.52,20.63,4.51,30.94.37,7.77-3.12,6.64-11.93.97-15.46-4.42-2.75-9.32-3.7-14.33-4.3-11.4-1.37-22.93-1.92-33.89-5.88-9.97-3.6-18.28-9.28-23.46-18.73-3.99-7.27-5.33-15.11-4.47-23.44.64-6.17,1.88-12,5.15-17.37,3.64-5.98,8.65-10.43,14.69-13.77,8.01-4.43,16.65-6.84,25.75-7.4,6.11-.37,12.26-.75,18.36-.41,11.87.67,23.25,3.41,33.42,9.92,10.58,6.78,16.71,16.53,18.77,28.87.35,2.08.39,4.22.59,6.59-.97.06-1.7.14-2.44.14-11.36,0-22.73-.03-34.09.04-1.74,0-2.42-.49-2.97-2.25-1.97-6.24-6.65-9.78-12.76-11.38-5.37-1.41-10.89-1.67-16.27-.13-3.67,1.05-7.38,2.36-8.64,6.7-1.05,3.64-.07,7.29,3.32,8.84,3.69,1.68,7.7,2.93,11.69,3.63,9.28,1.64,18.72,2.43,27.93,4.33,10.42,2.15,19.85,6.83,27.33,14.58,6.5,6.73,9.8,14.98,10.07,24.41.2,6.88-.46,13.55-3.46,19.89-3.92,8.29-10.29,14.13-18.22,18.38-7.9,4.23-16.39,6.67-25.32,7.38-6.16.49-12.37,1.07-18.52.85-11.01-.4-21.89-2-31.99-6.78-10.27-4.86-18.47-11.91-23.05-22.82Z"/>
  <path class="cls-2" d="M520.39,119.1v88.29h-44.17v-100.18h-16.45v-32.12h60.61v44.02Z"/>
  <path class="cls-2" d="M516.22,51.72c-1.67,4.16-3.9,7.9-7.79,9.82-3.14,1.55-6.71,2.65-10.19,3.03-6.19.66-12.42.32-17.98-3.09-4.62-2.83-7.29-7.1-8.42-12.32-1.51-6.95-1.03-13.59,2.87-19.82,3.1-4.95,7.77-7.23,13.16-8.26,4.83-.93,9.7-.75,14.53.35,8.34,1.91,12.96,7.34,14.71,15.44,1.07,4.94.74,9.86-.88,14.86Z"/>
  <path class="cls-1" d="M1085.98,51.8c-2.26.47-4.33.91-6.4,1.35-.05-.26-.1-.51-.15-.77,5.89-1.4,11.78-2.81,17.66-4.21.04.15.08.3.13.44-3.68,1.05-7.37,2.11-11.24,3.19Z"/>
  <path class="cls-1" d="M1053.89,23.7c-.03-.71-.03-1.23-.03-2.29,1.71,6.39,3.28,12.25,4.85,18.1-.18.05-.36.11-.55.16-2.12-5.05-2.97-10.48-4.27-15.97Z"/>
</svg>