<?xml version="1.0" encoding="UTF-8"?>
<svg id="Layer_1" data-name="Layer 1" xmlns="http://www.w3.org/2000/svg" viewBox="0 0 1235.81 775.25">
  <defs>
    <style>
      .cls-1 {
        fill: #f96f47;
      }

      .cls-1, .cls-2, .cls-3, .cls-4, .cls-5, .cls-6, .cls-7, .cls-8 {
        stroke-width: 0px;
      }

      .cls-2 {
        fill: #b3d1b7;
      }

      .cls-3 {
        fill: #b4d2b7;
      }

      .cls-4 {
        fill: #65a587;
      }

      .cls-5 {
        fill: #bad5bb;
      }

      .cls-6 {
        fill: #67a689;
      }

      .cls-7 {
        fill: #fff;
      }

      .cls-8 {
        fill: #66a688;
      }
    </style>
  </defs>
  <path class="cls-4" d="M502.08,608.82c0,32.76,0,64.59,0,96.88h-122.02c-1.84-28.99-3.65-57.52-5.6-88.33-2.78,4.97-4.44,8.09-6.23,11.11-29.07,48.97-71.65,77.95-128.19,85.58-41.97,5.66-82.45.43-120.78-18.48-37.29-18.39-64.9-46.75-85.1-82.68-15.97-28.4-25.03-59.08-30.04-91.15-4.67-29.87-4.9-59.92-3.02-89.89,2.3-36.63,10.32-72.18,26.72-105.29,20.42-41.22,49.8-74.31,91.23-95.41,21.98-11.19,45.38-18.04,70.09-20.81,23.99-2.69,47.74-2.33,71.2,3.13,44.3,10.32,76.97,36.37,99.74,75.37,1.35,2.31,2.71,4.6,5.38,6.66V6.43c7.38-2.11,125.41-2.52,136.64-.53,0,200.54,0,401.27,0,602.92M136.72,466.01c-.7,23.48,2.2,46.5,9.42,68.85,10.06,31.13,28.19,55.67,58.83,69.32,19.29,8.59,39.75,10.16,60.41,7.97,27.83-2.96,50.61-15.56,67.9-37.8,13.24-17.02,21.22-36.45,26.47-57.15,5.86-23.1,6.44-46.65,5.98-70.29-.42-21.3-3.62-42.18-11.37-62.03-17.15-43.91-47.98-70.46-96.45-72.73-28.45-1.33-54.72,5.61-77.08,24.27-18.33,15.3-29.06,35.48-35.89,57.8-6.96,22.75-9.12,46.21-8.23,71.79Z"/>
  <path class="cls-1" d="M1111.72,264.2c7.23,9.83,14.85,19.41,21.63,29.55,23.43,35.08,36.66,73.81,41.41,115.69,2.6,22.97,2.6,45.98.99,68.88-2.83,40.4-13.35,78.64-38.57,111.28-26.68,34.52-61.32,55.63-105.43,60.18-24.65,2.54-48.48.05-70.48-11.54-23.27-12.26-36.46-32.1-39.61-58.37-.15-1.22-.1-2.47-.37-3.65-.41-1.78-1.01-3.52-1.83-6.27-1.55,2.48-2.81,4.35-3.93,6.3-20.56,35.72-50.67,58.69-91.89,63.16-46.75,5.08-85.76-14.17-107.6-61.64-11.1-24.13-14.25-49.95-13.6-76.23.93-38.03,10.03-73.92,29.26-106.98,16.93-29.1,39.39-52.35,70.84-65.77,13.33-5.68,27.32-8.37,41.82-9.86,18.8-1.93,36.66.49,53.87,7.67,22.67,9.46,38.6,25.57,46.3,49.27.66,2.02,1.44,4,2.82,7.8,4.61-10.45,5.68-20.26,8.05-29.67,2.39-9.49,4.85-18.96,7.33-28.65h104.72c-3.45,15.29-6.66,29.89-10.04,44.46-12.94,55.77-26,111.51-38.85,167.3-2.2,9.54-3.51,19.17-1.18,29.08,2.96,12.62,10.86,20.53,23.66,22.27,15.04,2.05,28.55-1.64,40.53-11.04,12.97-10.18,20.75-23.91,26.84-38.83,8.34-20.39,11.61-41.79,12.8-63.62.32-5.79,1.27-11.58,1.2-17.36-.41-38.32-5.63-75.74-22.63-110.63-26.09-53.56-68.82-87.5-125.25-104.84-34.11-10.48-69.19-13.12-104.55-10.59-35.08,2.51-69.01,10.51-100.77,26.11-18.5,9.09-35.68,20.27-51.14,34.05-44.07,39.28-68.07,88.96-76.59,146.77-6.71,45.5-4.88,90.52,9.91,134.27,18.43,54.51,53.62,95.01,105.07,121.17,32.43,16.49,66.89,25.32,103.11,27.57,7.32.45,14.64,1.03,21.96,1.26,49.27,1.55,94.39-12.01,136.18-37.61,1.27-.78,2.55-1.52,4.71-2.8,8.9,14.68,17.57,28.96,26.69,43.99-3.24,2.29-5.82,4.34-8.6,6.05-36.58,22.44-75.81,37.13-118.85,40.82-56.41,4.84-111.99,1.85-166-16.94-38.83-13.51-73.36-34.12-102.53-63.12-32.24-32.05-53.62-70.68-65.93-114.26-10.24-36.27-13.23-73.41-11.65-111,1.53-36.11,8.31-71.1,22.23-104.53,26.28-63.1,68.92-111.76,128.82-144.97,36.91-20.46,76.55-32.36,118.41-37.45,21.66-2.63,43.37-3.95,65.09-2.87,41.28,2.06,81.37,9.95,119.86,27.25.66-.1.58-.08.83.5,1.05.82,1.85,1.07,3.09,1.69,3.31,2.1,6.26,3.71,9.04,5.56,14.73,9.79,29.69,19.27,44.01,29.63,8.12,5.87,15.16,13.23,22.9,20.36.79.72,1.36.99,1.94,1.22,0-.04-.07-.08-.07-.08M896.52,543.8c3.52-4.63,7.57-8.95,10.47-13.94,16.26-27.96,24.44-58.04,20.57-90.43-3.98-33.29-28.64-47.58-59-41.44-14.93,3.02-25.96,12.3-34.8,24.03-21.8,28.94-30.51,61.61-25.9,97.55,2.94,22.96,18.13,38.74,40.8,42.42,18.68,3.03,34.31-3.47,47.86-18.19Z"/>
  <path class="cls-8" d="M808.92,51.15c3.85,3.96,7.24,7.45,10.57,10.88-68.31,85.13-209.55,84.61-277.44.29,5.8-8.24,13.52-14.73,21.35-20.96,31.31-24.92,66.62-39.02,106.98-41.08,31.9-1.63,62.04,4.05,90.72,17.54,17.55,8.26,33.4,19.28,47.81,33.34M655.42,63.56c-16.16-1.18-32.32-2.32-48.48-3.56-7.62-.58-15.21-1.59-22.84-1.87-1.95-.07-5.28,1.52-5.69,2.99-.85,3.05,2.14,3.84,4.7,4.09,19.16,1.83,38.31,4.88,57.5,5.18,31.23.49,62.5-.51,93.73-1.53,14.57-.47,29.08-2.45,43.62-3.75-40.33.02-80.57,1.88-122.55-1.55Z"/>
  <path class="cls-6" d="M1109.64,262.62c-7.53-6.69-14.57-14.04-22.69-19.92-14.32-10.36-29.28-19.84-44.01-29.63-2.78-1.85-5.73-3.46-9.36-6.14-1.51-1.21-2.26-1.45-3.01-1.7,0,0,.08-.02.1,0-.06-1.41.31-3.08-.29-4.25-6.98-13.53-10.96-27.97-11.89-43.04-1.5-24.13,4.21-46.54,17.78-67.25,10.18,2.88,17.79,9.06,24.88,15.64,32.94,30.54,42.65,68,32.44,111.2-.21.89-.33,1.81-.83,3.63-.24,1.35-.14,1.78-.05,2.21l.96-1.15c2.15-1.61,4.54-2.98,6.42-4.86,33.39-33.54,87.94-40.16,129.89-16.28,1.82,1.04,3.43,2.46,5.83,4.19-1.12,2.55-1.88,5.16-3.28,7.37-21.53,34.09-52.13,52.59-92.8,53.07-8.81.1-17.64-1.33-27.24-1.8-.77.26-.7.3-.73-.2-.73-.71-1.43-.91-2.13-1.11M1069.39,216.67c-10.48-32.62-19.21-65.67-25.06-99.51-.57,2.22-.8,4.37-.54,6.46,2.97,23.64,6.55,47.18,13.47,70.05,2.3,7.61,4.92,15.14,7.62,22.62.59,1.64,1.39,4.87,4.5.38M1126.96,240.12c22.09-5.35,44.18-10.72,64.7-20.97-1.9-.44-3.59-.15-5.23.3-14.15,3.87-28.22,8.05-42.46,11.56-11.55,2.84-23.31,4.84-34.95,7.34-1.39.3-2.59,1.45-4.95,2.83,8.24,2.27,14.75.25,22.88-1.07M1196.05,216.75l.36,1c.12-.34.24-.69-.36-1Z"/>
  <path class="cls-7" d="M1030.82,205.81c.5-.33,1.26-.09,2.33.73-.48.33-1.28.09-2.33-.73Z"/>
  <path class="cls-7" d="M1109.85,263.06c.48-.24,1.18-.04,1.91.71-.55.28-1.12,0-1.91-.71Z"/>
  <path class="cls-5" d="M656.3,63.59c41.1,3.41,81.35,1.56,121.67,1.53-14.54,1.3-29.06,3.27-43.62,3.75-31.23,1.01-62.5,2.01-93.73,1.53-19.19-.3-38.33-3.34-57.5-5.18-2.57-.25-5.55-1.04-4.7-4.09.41-1.47,3.74-3.06,5.69-2.99,7.63.28,15.22,1.29,22.84,1.87,16.15,1.24,32.32,2.38,49.36,3.58Z"/>
  <path class="cls-3" d="M1069.28,217.34c-3,3.81-3.8.59-4.39-1.05-2.7-7.48-5.32-15.01-7.62-22.62-6.92-22.88-10.51-46.41-13.47-70.05-.26-2.09-.03-4.24.54-6.46,5.84,33.84,14.58,66.9,24.95,100.19Z"/>
  <path class="cls-2" d="M1126.17,240.2c-7.34,1.24-13.84,3.27-22.09.99,2.35-1.38,3.56-2.53,4.95-2.83,11.64-2.51,23.4-4.5,34.95-7.34,14.24-3.51,28.31-7.69,42.46-11.56,1.65-.45,3.34-.74,5.23-.3-20.53,10.25-42.61,15.62-65.49,21.04Z"/>
  <path class="cls-2" d="M1196.4,216.74c.24.33.12.67,0,1.02-.12-.33-.24-.67,0-1.02Z"/>
  <path class="cls-7" d="M1093.55,222.12c-.19.5-.51.89-.84,1.27-.09-.43-.19-.87.09-1.47.37-.17.62.07.75.19Z"/>
</svg>