<svg width="372" height="125" viewBox="0 0 372 125" fill="none" xmlns="http://www.w3.org/2000/svg">
<circle cx="186" cy="205" r="183.5" stroke="#FFFDFB" stroke-width="5"/>
<path d="M274.261 0L274.259 0C274.207 26.0591 263.492 44.4956 238 44.6861V44.6995C269.18 44.7641 274.26 64.9877 274.26 89.7812C274.22 86.9375 274.216 87.3438 274.207 87.7487L274.273 91C274.264 90.5988 274.26 90.1964 274.26 89.7926C274.273 59.5636 283.315 43.6559 310.89 44.7103C311.263 44.7246 311.633 44.7425 312 44.7641V44.6339C311.877 44.6525 311.753 44.6704 311.63 44.6875C284.767 44.6875 274.373 24.7175 274.261 0Z" fill="white"/>
</svg>
