<svg width="179" height="210" viewBox="0 0 179 210" fill="none" xmlns="http://www.w3.org/2000/svg">
<line x1="67.5" y1="209.039" x2="67.5" y2="92.9998" stroke="#C5647B" stroke-width="9"/>
<g filter="url(#filter0_d_1468_179)">
<path d="M40.0505 66.4388C59.9607 66.4388 76.101 51.566 76.101 33.2194C76.101 14.8728 59.9607 0 40.0505 0C20.1404 0 4 14.8728 4 33.2194C4 51.566 20.1404 66.4388 40.0505 66.4388Z" fill="#B89FD1"/>
<path d="M40.0505 113C59.9607 113 76.101 98.127 76.101 79.7804C76.101 61.4339 59.9607 46.561 40.0505 46.561C20.1404 46.561 4 61.4339 4 79.7804C4 98.127 20.1404 113 40.0505 113Z" fill="#B89FD1"/>
<path d="M95.9489 66.4388C115.859 66.4388 131.999 51.566 131.999 33.2194C131.999 14.8728 115.859 0 95.9489 0C76.0387 0 59.8984 14.8728 59.8984 33.2194C59.8984 51.566 76.0387 66.4388 95.9489 66.4388Z" fill="#B89FD1"/>
<path d="M95.9489 113C115.859 113 131.999 98.127 131.999 79.7804C131.999 61.4339 115.859 46.561 95.9489 46.561C76.0387 46.561 59.8984 61.4339 59.8984 79.7804C59.8984 98.127 76.0387 113 95.9489 113Z" fill="#B89FD1"/>
<path d="M68.0048 63.1167C71.9673 63.1167 75.1795 60.1567 75.1795 56.5054C75.1795 52.854 71.9673 49.894 68.0048 49.894C64.0423 49.894 60.8301 52.854 60.8301 56.5054C60.8301 60.1567 64.0423 63.1167 68.0048 63.1167Z" fill="#B89FD1"/>
</g>
<path d="M134 47C109.143 47 89 67.1429 89 92C89 116.857 109.152 137 134 137C158.848 137 179 116.857 179 92C179 67.1429 158.848 47 134 47ZM134 128.755C113.692 128.755 97.2337 112.298 97.2337 91.9914C97.2337 71.6844 113.692 55.2281 134 55.2281C154.308 55.2281 170.766 71.6844 170.766 91.9914C170.766 112.298 154.308 128.755 134 128.755Z" fill="#FFD6D6"/>
<defs>
<filter id="filter0_d_1468_179" x="0" y="0" width="136" height="121" filterUnits="userSpaceOnUse" color-interpolation-filters="sRGB">
<feFlood flood-opacity="0" result="BackgroundImageFix"/>
<feColorMatrix in="SourceAlpha" type="matrix" values="0 0 0 0 0 0 0 0 0 0 0 0 0 0 0 0 0 0 127 0" result="hardAlpha"/>
<feOffset dy="4"/>
<feGaussianBlur stdDeviation="2"/>
<feComposite in2="hardAlpha" operator="out"/>
<feColorMatrix type="matrix" values="0 0 0 0 0 0 0 0 0 0 0 0 0 0 0 0 0 0 0.25 0"/>
<feBlend mode="normal" in2="BackgroundImageFix" result="effect1_dropShadow_1468_179"/>
<feBlend mode="normal" in="SourceGraphic" in2="effect1_dropShadow_1468_179" result="shape"/>
</filter>
</defs>
</svg>
