<svg width="157" height="206" viewBox="0 0 157 206" fill="none" xmlns="http://www.w3.org/2000/svg">
<path d="M80.6588 153.907C68.075 167.598 62.0639 186.105 62.6884 204.369C78.7654 205.807 95.3312 199.746 107.915 186.045C120.499 172.354 126.51 153.847 125.885 135.584C109.808 134.146 93.2427 140.207 80.6588 153.907Z" fill="#64A587"/>
<path d="M46.9679 153.236C34.939 139.055 18.6354 132.331 2.50635 133.127C1.15528 151.351 6.42493 170.083 18.4537 184.264C30.4826 198.446 46.7862 205.17 62.9152 204.374C64.2663 186.149 58.9967 167.418 46.9679 153.236Z" fill="#64A587"/>
<ellipse cx="62.5" cy="60.5" rx="62.5" ry="60.5" fill="#F88C99"/>
<g filter="url(#filter0_d_1468_178)">
<path d="M118.466 46.855L122.568 43.5174C123.702 42.5971 125.452 42.947 126.095 44.2303L128.412 48.8576C128.89 49.8168 130.039 50.3029 131.112 49.9983L136.287 48.5336C137.722 48.1253 139.164 49.1234 139.205 50.5427L139.335 55.6691C139.363 56.732 140.203 57.6134 141.311 57.7495L146.663 58.4105C148.146 58.592 149.042 60.0632 148.468 61.3723L146.396 66.1034C145.966 67.082 146.355 68.2162 147.306 68.767L151.913 71.4372C153.191 72.176 153.375 73.8675 152.289 74.8397L148.365 78.3653C147.552 79.0976 147.422 80.2772 148.057 81.1521L151.12 85.3712C151.967 86.5377 151.414 88.1515 150.006 88.6246L144.913 90.3291C143.86 90.6791 143.232 91.7095 143.437 92.7594L144.428 97.7951C144.701 99.1885 143.505 100.452 142.015 100.336L136.635 99.9273C135.521 99.8431 134.509 100.543 134.25 101.573L132.999 106.557C132.65 107.938 131.016 108.631 129.704 107.951L124.967 105.501C123.983 104.995 122.759 105.242 122.082 106.084L118.801 110.154C117.892 111.282 116.108 111.282 115.199 110.154L111.918 106.084C111.241 105.242 110.011 104.995 109.033 105.501L104.296 107.951C102.984 108.631 101.35 107.938 101.001 106.557L99.7504 101.573C99.4907 100.543 98.479 99.8431 97.3648 99.9273L91.9852 100.336C90.4951 100.452 89.2988 99.1885 89.5723 97.7951L90.5634 92.7594C90.7685 91.716 90.1396 90.6855 89.0869 90.3291L83.9944 88.6246C82.5863 88.1515 82.0326 86.5377 82.8802 85.3712L85.9426 81.1521C86.5783 80.2772 86.4484 79.0912 85.635 78.3653L81.7114 74.8397C80.6245 73.8675 80.8091 72.176 82.0873 71.4372L86.6945 68.767C87.6515 68.2162 88.0343 67.082 87.6036 66.1034L85.5324 61.3723C84.9582 60.0632 85.8537 58.592 87.337 58.4105L92.6893 57.7495C93.7966 57.6134 94.6374 56.7255 94.6648 55.6691L94.7946 50.5427C94.8288 49.1234 96.278 48.1253 97.7134 48.5336L102.888 49.9983C103.961 50.3029 105.103 49.8168 105.588 48.8576L107.905 44.2303C108.548 42.947 110.298 42.5971 111.432 43.5174L115.534 46.855C116.381 47.5485 117.639 47.5485 118.487 46.855H118.466Z" fill="#F07167"/>
</g>
<defs>
<filter id="filter0_d_1468_178" x="77" y="43" width="80" height="76" filterUnits="userSpaceOnUse" color-interpolation-filters="sRGB">
<feFlood flood-opacity="0" result="BackgroundImageFix"/>
<feColorMatrix in="SourceAlpha" type="matrix" values="0 0 0 0 0 0 0 0 0 0 0 0 0 0 0 0 0 0 127 0" result="hardAlpha"/>
<feOffset dy="4"/>
<feGaussianBlur stdDeviation="2"/>
<feComposite in2="hardAlpha" operator="out"/>
<feColorMatrix type="matrix" values="0 0 0 0 0 0 0 0 0 0 0 0 0 0 0 0 0 0 0.25 0"/>
<feBlend mode="normal" in2="BackgroundImageFix" result="effect1_dropShadow_1468_178"/>
<feBlend mode="normal" in="SourceGraphic" in2="effect1_dropShadow_1468_178" result="shape"/>
</filter>
</defs>
</svg>
