<svg width="331" height="426" viewBox="0 0 331 426" fill="none" xmlns="http://www.w3.org/2000/svg">
<path d="M160.956 111.038C157.077 125.514 142.198 134.104 127.723 130.226C114.767 123.243 104.656 111.468 108.535 96.9922C112.414 82.5165 127.293 73.9261 141.769 77.8048C156.244 81.6835 161.848 96.0606 160.956 111.038Z" fill="#A0836F"/>
<path d="M160.956 111.038C157.077 125.514 142.198 134.104 127.723 130.226C114.767 123.243 104.656 111.468 108.535 96.9922C112.414 82.5165 127.293 73.9261 141.769 77.8048C156.244 81.6835 161.848 96.0606 160.956 111.038Z" stroke="#5F4B3D"/>
<path d="M126.069 117.294C109.005 95.8538 126.782 82.0824 139.091 77.4411C99.1893 77.6827 105.461 118.411 121.735 124.724C129.431 131.471 143.133 138.735 126.069 117.294Z" fill="#846853"/>
<ellipse cx="135.981" cy="103.997" rx="14.7547" ry="15.6026" transform="rotate(15 135.981 103.997)" fill="#C6A195"/>
<path d="M128.163 90.3372C113.864 97.5128 120.218 114.916 127.345 119.24L135.897 111.526C124.341 102.218 139.817 84.4887 128.163 90.3372Z" fill="#B59084"/>
<path d="M229.606 128.734C225.727 143.21 234.391 158.109 248.957 162.012C263.755 162.465 278.476 157.344 282.355 142.868C286.233 128.393 277.57 113.494 263.003 109.591C248.437 105.688 236.341 115.322 229.606 128.734Z" fill="#A0836F"/>
<path d="M229.606 128.734C225.727 143.21 234.391 158.109 248.957 162.012C263.755 162.465 278.476 157.344 282.355 142.868C286.233 128.393 277.57 113.494 263.003 109.591C248.437 105.688 236.341 115.322 229.606 128.734Z" stroke="#5F4B3D"/>
<path d="M249.069 149.889C232.091 128.46 249.675 115.014 261.946 110.357C225.928 105.395 228.533 151.03 244.742 157.326C252.402 164.068 266.046 171.319 249.069 149.889Z" fill="#846853"/>
<ellipse cx="255.729" cy="136.083" rx="16.6202" ry="16.281" transform="rotate(15 255.729 136.083)" fill="#C6A195"/>
<path d="M247.629 121.737C232.352 129.145 239.291 147.41 246.963 151.99L256.075 143.976C243.618 134.148 260.081 115.699 247.629 121.737Z" fill="#B59084"/>
<path d="M267.693 191.288C263.232 218.599 241.748 231.623 169.536 216.578C106.75 198.189 88.4057 171.755 100.102 146.382C122.921 96.8836 155.555 86.0653 201.228 98.3032C246.9 110.541 266.509 127.533 267.693 191.288Z" fill="#A0836F"/>
<path d="M267.693 191.288C263.232 218.599 241.748 231.623 169.536 216.578C106.75 198.189 88.4057 171.755 100.102 146.382C122.921 96.8836 155.555 86.0653 201.228 98.3032C246.9 110.541 266.509 127.533 267.693 191.288Z" stroke="#846853"/>
<path d="M167.827 94.2706C167.738 94.2707 167.648 94.2711 167.557 94.2718C163.766 94.3632 154.948 97.5834 143.962 108.989C129.892 123.595 116.883 153.195 114.794 160.993C112.839 168.289 112.706 176.073 121.124 186.93C129.298 197.472 176.442 222.474 238.982 220.856C197.677 227.774 147.099 209.529 122.885 196.395C98.6713 183.26 96.4121 165.451 97.8602 155.674C99.3082 145.896 111.857 123.845 126.753 109.07C138.549 97.3693 158.687 94.3397 167.557 94.2718C167.65 94.2696 167.74 94.2692 167.827 94.2706Z" fill="#846853"/>
<ellipse cx="178.218" cy="185.545" rx="19.3337" ry="16.9594" transform="rotate(15 178.218 185.545)" fill="#C6AA95"/>
<path d="M190.554 181.422C189.957 183.65 184.894 182.89 178.832 181.266C172.771 179.642 168.006 177.768 168.603 175.54C169.2 173.312 174.263 174.072 180.325 175.696C186.386 177.32 191.151 179.194 190.554 181.422Z" fill="#5F4B3D"/>
<path d="M213.214 168.935C216.88 167.797 225.484 167.134 230.579 173.587" stroke="#5F4B3D" stroke-width="5.98749" stroke-linecap="round"/>
<path d="M140.151 149.356C143.816 148.219 152.42 147.556 157.515 154.009" stroke="#5F4B3D" stroke-width="5.98749" stroke-linecap="round"/>
<path d="M184.673 192.89C181.468 192.031 176.482 190.696 179.906 177.918" stroke="#5F4B3D" stroke-width="5.98749" stroke-linecap="round"/>
<path d="M168.293 188.499C171.626 189.392 176.811 190.781 180.235 178.004" stroke="#5F4B3D" stroke-width="5.98749" stroke-linecap="round"/>
<ellipse cx="241.282" cy="195.243" rx="16.281" ry="14.4155" transform="rotate(15 241.282 195.243)" fill="#CD9F99"/>
<ellipse cx="4.23363" cy="5.69999" rx="4.23363" ry="5.69999" transform="matrix(-0.635313 0.772255 0.772255 0.635313 160.522 136.742)" fill="#C6AA95"/>
<ellipse cx="213.279" cy="157.312" rx="4.23363" ry="5.69999" transform="rotate(80.5568 213.279 157.312)" fill="#C6AA95"/>
<ellipse cx="122.35" cy="163.374" rx="16.281" ry="14.4155" transform="rotate(15 122.35 163.374)" fill="#CD9F99"/>
<path d="M119.678 148.791C117.349 154.54 112.831 167.87 114.861 175.592C97.7659 164.379 109.434 148.777 119.678 148.791Z" fill="#C58D85"/>
<path d="M263.662 157.876C260.796 134.793 246.165 119.793 239.207 115.179L242.276 112.465C257.026 117.989 264.794 144.429 266.702 156.726L263.662 157.876Z" fill="#927763" fill-opacity="0.3"/>
<path d="M118.109 125.195C132.133 106.638 152.304 100.963 160.636 100.446L159.336 96.5617C143.799 93.9702 123.852 112.984 116.052 122.68L118.109 125.195Z" fill="#927763" fill-opacity="0.3"/>
<path d="M201.501 58.7392C192.74 74.0091 191.147 84.0189 188.238 100.49C202.932 102.124 245.459 100.217 250.858 71.224C255.039 48.7717 254.67 52.2223 250.775 33.0669C236.583 44.4287 208.183 47.0927 201.501 58.7392Z" fill="url(#paint0_linear_494_349)"/>
<path d="M218.553 66.74C214.771 83.9335 209.219 92.4134 200.297 106.562C188.322 97.8909 158.126 67.8839 173.625 42.7934C185.627 23.3632 183.58 26.1654 199.343 14.6056C202.208 32.5586 221.438 53.6264 218.553 66.74Z" fill="url(#paint1_linear_494_349)"/>
<path d="M152.142 43.4257C145.587 60.3893 162.428 92.9385 179.391 99.4931C196.355 106.048 195.275 109.947 201.83 92.9838C208.385 76.0202 197.803 67.0701 180.84 60.5155C153.255 40.5443 162.981 25.0214 152.142 43.4257Z" fill="url(#paint2_linear_494_349)"/>
<path d="M152.142 43.4257C145.587 60.3893 162.428 92.9385 179.391 99.4931C196.355 106.048 195.275 109.947 201.83 92.9838C208.385 76.0202 197.803 67.0701 180.84 60.5155C153.255 40.5443 162.981 25.0214 152.142 43.4257Z" fill="url(#paint3_linear_494_349)"/>
<path d="M238.862 80.6824C232.308 97.646 218.15 82.2106 194.38 104.444C193.662 64.2763 170.877 73.9096 177.432 56.946C183.986 39.9824 209.251 27.5855 226.187 22.127C236.923 35.4536 245.417 63.7188 238.862 80.6824Z" fill="url(#paint4_radial_494_349)"/>
<path d="M240.271 78.0494C234.399 98.7264 213.493 88.7815 202.073 98.2382C217.266 82.5748 229.306 97.1921 235.861 80.2286C242.415 63.265 236.25 48.2552 232.942 32.1504C240.362 49.4909 243.043 58.9989 240.271 78.0494Z" fill="#EEC1A9"/>
<path d="M265.86 87.555C259.306 104.519 224.955 117.288 207.991 110.733C191.027 104.178 189.204 107.791 195.759 90.827C202.314 73.8634 216.164 74.3537 233.128 80.9083C266.974 84.6735 270.212 66.6438 265.86 87.555Z" fill="url(#paint5_linear_494_349)"/>
<path d="M265.86 87.555C259.306 104.519 224.955 117.288 207.991 110.733C191.027 104.178 189.204 107.791 195.759 90.827C202.314 73.8634 216.164 74.3537 233.128 80.9083C266.974 84.6735 270.212 66.6438 265.86 87.555Z" fill="url(#paint6_linear_494_349)"/>
<path d="M244.917 77.7926C243.173 93.4133 215.508 105.038 202.494 103.585C189.481 102.133 188.81 105.559 190.553 89.9389C192.297 74.3183 210.797 64.043 223.81 65.4957C254.829 74.4547 244.449 59.4133 244.917 77.7926Z" fill="url(#paint7_radial_494_349)"/>
<path d="M169.474 51.047C164.677 45.6699 159.143 35.7588 159.143 35.7588C159.143 35.7588 160.652 40.3615 161.921 43.1864C164.44 48.7935 163.9 50.8179 167.694 55.6543C170.854 59.6824 173.213 63.035 176.873 66.6145C180.425 70.0873 183.257 71.4573 186.151 75.4943C190.084 80.981 191.891 83.9952 192.628 90.7057C193.033 94.386 192.23 103.613 192.23 103.613C192.23 103.613 198.125 93.6573 198.66 88.8001C199.406 82.0243 197.893 77.6695 194.242 71.9134C190.276 65.6622 184.965 65.0068 179.366 60.1643C175.392 56.7277 172.971 54.9673 169.474 51.047Z" fill="#EAB29F" fill-opacity="0.84"/>
<path d="M177.607 45.4125C166.584 55.0892 173.917 84.1261 182.706 94.1372C191.494 104.148 189.246 106.51 200.269 96.8336C211.292 87.1569 208.318 66.4212 199.53 56.4101C174.341 35.4443 192.061 36.1133 177.607 45.4125Z" fill="url(#paint8_radial_494_349)"/>
<path d="M177.809 45.6792C175.141 48.0307 173.562 51.5711 172.846 55.7565C172.129 59.9496 172.283 64.7608 173.056 69.5968C174.604 79.2804 178.618 88.9752 182.956 93.9173C184.549 95.7322 185.786 97.3022 186.797 98.5867C187.184 99.078 187.538 99.5275 187.866 99.933C188.464 100.67 188.973 101.257 189.446 101.697C189.918 102.137 190.339 102.415 190.754 102.552C191.558 102.817 192.468 102.595 193.926 101.625C195.38 100.657 197.287 99.0081 200.049 96.5831C205.457 91.8362 207.456 84.3513 206.996 76.7675C206.536 69.1945 203.625 61.5916 199.297 56.6495C187.075 46.4729 184.911 41.3575 184.289 39.8228C184.184 39.9871 184.045 40.2001 183.857 40.4566C183.066 41.5351 181.436 43.3425 177.809 45.6792Z" stroke="#C88181" stroke-opacity="0.02" stroke-width="0.666676"/>
<path d="M192.148 49.9243L184.267 40.1719C184.267 40.1719 187.809 47.7855 191.555 51.46C193.006 52.8839 194.142 53.3268 195.569 54.776C198.096 57.344 199.136 59.1908 200.734 62.4202C203.187 67.3777 203.604 70.6455 204.259 76.1376C204.641 79.34 205.158 81.2123 204.601 84.3889C203.865 88.5859 202.327 90.7654 199.763 94.1689C197.995 96.5156 196.481 97.3753 194.506 99.551C192.948 101.268 190.646 104.06 190.646 104.06C190.646 104.06 197.362 100.232 200.587 96.6052C203.536 93.2871 205.119 91.1051 206.465 86.8741C207.467 83.7234 207.613 81.7892 207.589 78.4832C207.563 74.9103 207.114 72.8868 206.137 69.45C204.694 64.3741 203.49 61.4509 200.246 57.2893C197.617 53.9181 192.148 49.9243 192.148 49.9243Z" fill="url(#paint9_linear_494_349)"/>
<path d="M245.426 71.9226C245.767 70.4176 246.117 68.3065 246.117 68.3065C246.117 68.3065 245.006 70.5869 244.455 72.6066C243.865 74.7734 243.945 76.3997 243.548 78.6101C243.045 81.4061 241.934 82.7908 240.323 85.1301C237.516 89.204 234.891 90.7174 230.759 93.437C225.213 97.0864 221.531 98.3753 215.121 100.103C208.124 101.99 203.089 98.7769 196.678 102.155C195.131 102.971 192.915 104.584 192.915 104.584C192.915 104.584 195.728 103.896 197.551 103.551C204.505 102.237 208.759 104.083 215.638 102.421C222.709 100.712 226.727 99.0755 232.671 94.8821C236.76 91.9977 239.473 90.4401 242.047 86.1494C243.634 83.5028 244.421 81.8274 244.895 78.7777C245.302 76.1581 244.84 74.5081 245.426 71.9226Z" fill="url(#paint10_linear_494_349)"/>
<path d="M185.678 95.1163C188.179 100.232 193.968 107.112 193.968 107.112C193.968 107.112 189.519 99.4249 187.355 94.1827C185.236 89.0495 184.325 86.0395 182.991 80.6486C181.588 74.9745 180.415 71.7402 180.469 65.8955C180.492 63.4795 180.981 59.73 180.981 59.73C180.981 59.73 179.733 63.7577 179.406 66.4228C178.656 72.5239 180.047 76.0434 181.434 82.0318C182.647 87.265 183.317 90.2908 185.678 95.1163Z" fill="url(#paint11_linear_494_349)"/>
<path d="M247.719 205.717C244.869 203.819 240.463 204.927 238.615 205.717L226.741 229.837C234.393 249.608 250.886 289.94 255.636 293.103C261.573 297.057 269.093 299.43 280.572 295.476C292.051 291.522 294.03 270.96 276.614 245.259C259.198 219.557 251.282 208.09 247.719 205.717Z" fill="#956039"/>
<path d="M245.167 241.6C246.091 245.913 246.451 255.336 246.708 259.315L254.452 291.967C262.929 298.514 288.322 302.062 289.093 282.036C284.084 289.353 277.148 290.508 272.91 289.353C267.515 289.353 260.965 272.408 259.423 264.321C257.918 256.422 244.011 236.209 245.167 241.6Z" fill="#692E03"/>
<path d="M97.8758 204.494C109.739 190.472 118.283 193.322 120.12 194.113C120.12 194.113 122.928 193.671 123.086 194.855C124.569 205.977 97.8758 279.383 97.8758 279.383C95.6513 286.798 95.6886 289.94 90.965 293.103C85.0605 297.057 77.5815 299.43 66.1662 295.476C54.7508 291.521 52.7827 270.96 70.1025 245.258C87.4223 219.557 95.1218 207.749 97.8758 204.494Z" fill="#956039"/>
<path d="M72.0186 259.459C76.9608 248.365 96.6012 216.876 104.452 204.163C104.066 203.649 115.734 193.044 112.706 194.113C100.151 198.544 94.6797 206.871 69.2676 245.546L68.9581 246.017C43.8294 284.26 62.3148 296.803 72.0185 297.921C82.0575 299.076 92.3689 292.765 94.6856 290.069C98.8041 282.878 102.225 276.751 93.2549 282.958C72.4047 297.388 65.8407 273.328 72.0186 259.459Z" fill="#692E03"/>
<path d="M86.012 299.404C91.1379 273.493 100.1 234.895 125.311 194.114C150.521 153.332 214.376 174.7 229.118 205.236C249.802 248.081 252.714 268.282 257.568 301.95L257.623 302.329C263.849 345.518 246.522 363.642 240.362 372.511C239.178 374.215 214.949 381.38 184.916 374.439C183.068 371.354 180.039 352.716 179.526 349.374C175.521 349.991 167.718 349.631 166.819 349.374C166.306 352.716 160.967 371.354 159.119 374.439C127.546 381.765 109.015 373.953 107.524 372.511C96.3574 361.714 77.9259 340.279 86.012 299.404Z" fill="#F1EBE7"/>
<path d="M172.024 236.378C154.228 231.187 148.297 218.582 134.208 202.27C197.234 225.255 222.445 220.807 222.445 220.807C222.445 220.807 189.819 241.568 172.024 236.378Z" fill="#C9BCB3"/>
<path d="M128.277 234.895C109.716 240.876 109.739 258.622 94.1684 260.847C104.377 231.251 117.867 194.909 125.311 191.889L237.274 221.548C246.172 238.602 256.898 281.631 253.587 279.384C232.825 265.296 244.1 251.949 227.635 243.051C200.316 228.288 149.677 227.999 128.277 234.895Z" fill="#956039"/>
<path fill-rule="evenodd" clip-rule="evenodd" d="M197.078 233.278C184.77 231.103 171.673 230.299 159.764 230.593C153.333 226.113 148.517 220.023 142.798 212.79C140.2 209.504 137.415 205.983 134.208 202.27C197.234 225.255 222.445 220.807 222.445 220.807C222.445 220.807 210.473 228.425 197.078 233.278Z" fill="#692E03"/>
<path fill-rule="evenodd" clip-rule="evenodd" d="M166.719 349.93C165.821 354.401 160.882 371.496 159.119 374.438C127.546 381.765 109.015 373.953 107.524 372.51C97.1246 362.455 80.4245 343.174 84.7098 307.557C98.1607 313.437 101.823 320.964 105.126 327.752C109.769 337.293 113.702 345.375 143.106 345.375C152.274 351.166 159.937 350.506 165.138 350.058C165.693 350.011 166.22 349.965 166.719 349.93Z" fill="#956039"/>
<path fill-rule="evenodd" clip-rule="evenodd" d="M258.245 307.263C262.103 343.077 249.233 360.47 242.343 369.782C241.605 370.78 240.935 371.686 240.362 372.511C239.178 374.215 214.949 381.38 184.916 374.439C183.138 371.471 180.267 354.109 179.595 349.819C190.431 349.693 198.796 347.32 201.683 346.117C232.349 346.117 236.635 335.294 240.775 324.839C243.672 317.522 246.498 310.385 258.245 307.263Z" fill="#956039"/>
<path fill-rule="evenodd" clip-rule="evenodd" d="M246.59 363.791C245.067 366.101 243.605 368.077 242.343 369.782C241.605 370.78 240.935 371.686 240.362 372.511C239.178 374.215 214.949 381.38 184.916 374.439C183.104 371.414 180.157 353.437 179.559 349.587C187.688 348.824 203.022 346.512 211.043 342.425C217.038 339.37 214.498 342.246 210.579 346.682L210.579 346.682C206.975 350.763 202.204 356.164 201.836 359.485C201.515 362.389 201.46 365.615 201.518 368.412C211.271 369.274 225.553 368.249 246.59 363.791Z" fill="#692E03"/>
<path fill-rule="evenodd" clip-rule="evenodd" d="M122.473 198.809C99.4164 237.845 90.9408 274.489 86.012 299.404C77.9259 340.279 96.3574 361.713 107.524 372.51C109.015 373.953 127.546 381.765 159.119 374.439C159.781 373.333 160.893 370.227 162.069 366.545L161.957 365.404C148.464 371.189 126.99 366.676 117.546 358.576C109.45 351.633 94.8006 325.404 101.354 286.832C104.881 266.077 111.686 240.382 116.799 221.074C119.275 211.728 121.354 203.878 122.473 198.809Z" fill="#2F1E12" fill-opacity="0.2"/>
<path fill-rule="evenodd" clip-rule="evenodd" d="M95.4825 260.615C101.188 241.866 109.534 220.714 122.473 198.809C121.353 203.878 119.274 211.728 116.799 221.074L116.799 221.074C114.466 229.882 111.782 240.02 109.217 250.411C105.526 255.106 101.894 259.262 95.4825 260.615Z" fill="#692E03"/>
<path fill-rule="evenodd" clip-rule="evenodd" d="M100.659 319.783C97.5972 315.454 93.0229 311.191 84.7099 307.557C80.4244 343.174 97.1246 362.455 107.524 372.511C109.015 373.953 127.546 381.765 159.119 374.439C159.781 373.333 160.893 370.228 162.069 366.545L162.069 366.544" fill="#692E03"/>
<path fill-rule="evenodd" clip-rule="evenodd" d="M168.23 349.542C167.516 349.488 167.011 349.429 166.819 349.374C166.43 351.908 163.266 363.236 160.954 369.91C154.078 371.75 147.914 372.947 145.178 373.003C145.246 372.65 145.336 372.246 145.436 371.799C146.094 368.842 147.175 363.988 145.178 359.464C143.448 355.545 138.371 349.716 134.556 345.338C130.573 340.766 127.967 337.775 131.984 340.185C135.542 342.32 150.027 347.187 168.23 349.542Z" fill="#692E03"/>
<path d="M160.959 111.037C157.08 125.512 142.201 134.103 127.726 130.224C114.77 123.241 104.66 111.466 108.538 96.9904C112.417 82.5148 118.748 70.4403 134.863 74.6814C160.959 81.5488 161.851 96.0589 160.959 111.037Z" fill="#692E03"/>
<path d="M160.959 111.037C157.08 125.512 142.201 134.103 127.726 130.224C114.77 123.241 104.66 111.466 108.538 96.9904C112.417 82.5148 118.748 70.4403 134.863 74.6814C160.959 81.5488 161.851 96.0589 160.959 111.037Z" stroke="#5F4B3D"/>
<path d="M126.072 117.293C109.009 95.8523 126.785 82.081 139.095 77.4396C99.1928 77.6813 105.464 118.409 121.739 124.722C129.434 131.47 143.136 138.734 126.072 117.293Z" fill="#502200"/>
<ellipse cx="135.984" cy="103.995" rx="14.7547" ry="15.6026" transform="rotate(15 135.984 103.995)" fill="#956039"/>
<path d="M128.166 90.3358C113.868 97.5113 120.222 114.914 127.349 119.239L135.9 111.524C124.345 102.217 139.82 84.4872 128.166 90.3358Z" fill="#431D01"/>
<path d="M223.203 129.817C218.761 146.396 228.589 163.434 245.155 167.873C261.991 168.362 279.191 154.972 283.633 138.393C288.075 121.814 288.505 115.341 271.939 110.902C255.373 106.464 230.893 114.45 223.203 129.817Z" fill="#692E03"/>
<path d="M223.203 129.817C218.761 146.396 228.589 163.434 245.155 167.873C261.991 168.362 279.191 154.972 283.633 138.393C288.075 121.814 288.505 115.341 271.939 110.902C255.373 106.464 230.893 114.45 223.203 129.817Z" stroke="#5F4B3D"/>
<path d="M249.072 149.887C232.094 128.458 249.679 115.013 261.949 110.355C225.931 105.393 228.537 151.028 244.745 157.324C252.405 164.066 266.05 171.317 249.072 149.887Z" fill="#502200"/>
<ellipse cx="255.732" cy="136.081" rx="16.6202" ry="16.281" transform="rotate(15 255.732 136.081)" fill="#956039"/>
<path d="M247.632 121.739C232.355 129.147 239.294 147.412 246.966 151.992L256.078 143.977C243.622 134.149 260.084 115.701 247.632 121.739Z" fill="#401B01"/>
<path d="M267.696 191.289C263.235 218.6 241.751 231.624 169.54 216.579C106.753 198.19 88.4092 171.756 100.106 146.383C122.924 96.8846 155.559 86.0662 201.231 98.3041C246.904 110.542 266.513 127.534 267.696 191.289Z" fill="#F1EBE7"/>
<path d="M267.696 191.289C263.235 218.6 241.751 231.624 169.54 216.579C106.753 198.19 88.4092 171.756 100.106 146.383C122.924 96.8846 155.559 86.0662 201.231 98.3041C246.904 110.542 266.513 127.534 267.696 191.289Z" stroke="#846853"/>
<path fill-rule="evenodd" clip-rule="evenodd" d="M157.136 212.648C104.358 194.536 89.2189 170 100.106 146.383C117.021 109.69 139.331 94.2525 168.347 93.7063C162.994 95.0298 153.093 99.5111 143.966 108.987C129.896 123.593 116.887 153.193 114.797 160.991C112.842 168.287 112.71 176.071 121.128 186.928C129.302 197.47 176.446 222.473 238.986 220.854C212.513 225.288 182.006 220.276 157.136 212.648Z" fill="#C9BCB3"/>
<path d="M190.558 181.421C189.961 183.648 184.897 182.889 178.836 181.265C172.774 179.64 168.009 177.767 168.606 175.539C169.203 173.311 174.267 174.071 180.328 175.695C186.39 177.319 191.155 179.193 190.558 181.421Z" fill="#692E03"/>
<path d="M186.111 191.889C181.662 192.631 176.484 190.695 179.908 177.917" stroke="#692E03" stroke-width="5.98749" stroke-linecap="round"/>
<path d="M167.574 186.699C169.057 188.923 174.989 192.631 180.238 178.003" stroke="#692E03" stroke-width="5.98749" stroke-linecap="round"/>
<ellipse cx="241.285" cy="195.242" rx="16.281" ry="14.4155" transform="rotate(15 241.285 195.242)" fill="#CD9F99"/>
<ellipse cx="122.354" cy="163.373" rx="16.281" ry="14.4155" transform="rotate(15 122.354 163.373)" fill="#CD9F99"/>
<path d="M119.681 148.789C117.352 154.538 112.835 167.868 114.864 175.591C97.7691 164.378 109.438 148.776 119.681 148.789Z" fill="#C58D85"/>
<path d="M265.149 157.874C262.282 134.791 247.651 119.791 240.694 115.177L243.762 112.463C258.513 117.987 266.281 144.427 268.188 156.724L265.149 157.874Z" fill="#692E01" fill-opacity="0.2"/>
<path d="M135.931 139.175C127.048 146.808 128.523 159.194 134.571 166.232C140.619 173.271 153.131 176.549 162.014 168.915C170.898 161.281 172.789 145.627 166.74 138.589C160.692 131.55 144.814 131.541 135.931 139.175Z" fill="#692E03"/>
<path d="M239.369 168.816C241.8 180.273 232.67 189.319 223.193 191.33C213.717 193.342 201.325 188.454 198.894 176.997C196.462 165.54 204.912 151.851 214.388 149.839C223.865 147.828 236.937 157.359 239.369 168.816Z" fill="#692E03"/>
<path d="M174.261 350.566C127.535 350.566 113.806 325.4 114.941 323.131C115.314 322.383 147.073 338.696 174.261 338.702C201.015 338.708 230.617 322.396 231.353 323.131C231.718 325.674 218.737 350.566 174.261 350.566Z" fill="#C9BCB3"/>
<ellipse cx="157.135" cy="153.165" rx="6.8752" ry="8.25024" transform="rotate(20.3006 157.135 153.165)" fill="#111111"/>
<ellipse cx="212.542" cy="166.943" rx="6.8752" ry="8.25024" transform="rotate(20.3006 212.542 166.943)" fill="#111111"/>
<path d="M217.019 166.329C216.312 167.119 216.475 165.411 215.489 164.528C214.503 163.646 212.74 163.924 213.447 163.134C214.154 162.344 215.839 162.041 216.826 162.924C217.812 163.806 217.725 165.539 217.019 166.329Z" fill="white"/>
<path d="M162.335 152.692C161.597 153.516 161.767 151.733 160.739 150.813C159.71 149.892 157.871 150.182 158.609 149.358C159.346 148.534 161.105 148.218 162.133 149.139C163.162 150.059 163.072 151.867 162.335 152.692Z" fill="white"/>
<defs>
<linearGradient id="paint0_linear_494_349" x1="249.287" y1="36.348" x2="234.543" y2="61.7158" gradientUnits="userSpaceOnUse">
<stop stop-color="#F1B09E"/>
<stop offset="1" stop-color="#FAE6CE"/>
</linearGradient>
<linearGradient id="paint1_linear_494_349" x1="198.238" y1="18.0351" x2="192.095" y2="46.7261" gradientUnits="userSpaceOnUse">
<stop stop-color="#F1B09E"/>
<stop offset="1" stop-color="#FAE6CE"/>
</linearGradient>
<linearGradient id="paint2_linear_494_349" x1="165.734" y1="62.6636" x2="195.248" y2="102.308" gradientUnits="userSpaceOnUse">
<stop stop-color="#EFB7A4"/>
<stop offset="0.942708" stop-color="#F7E7D8"/>
</linearGradient>
<linearGradient id="paint3_linear_494_349" x1="165.734" y1="62.6636" x2="195.248" y2="102.308" gradientUnits="userSpaceOnUse">
<stop stop-color="#EFB7A4"/>
<stop offset="0.942708" stop-color="#F7E7D8"/>
</linearGradient>
<radialGradient id="paint4_radial_494_349" cx="0" cy="0" r="1" gradientUnits="userSpaceOnUse" gradientTransform="translate(219.966 39.1391) rotate(111.395) scale(70.1383 52.3421)">
<stop stop-color="#FADFCC"/>
<stop offset="1" stop-color="#F1BEAB"/>
</radialGradient>
<linearGradient id="paint5_linear_494_349" x1="242.864" y1="92.6551" x2="194.361" y2="102.155" gradientUnits="userSpaceOnUse">
<stop stop-color="#EFB7A4"/>
<stop offset="0.942708" stop-color="#F7E7D8"/>
</linearGradient>
<linearGradient id="paint6_linear_494_349" x1="242.864" y1="92.6551" x2="194.361" y2="102.155" gradientUnits="userSpaceOnUse">
<stop stop-color="#EFB7A4"/>
<stop offset="0.942708" stop-color="#F7E7D8"/>
</linearGradient>
<radialGradient id="paint7_radial_494_349" cx="0" cy="0" r="1" gradientUnits="userSpaceOnUse" gradientTransform="translate(194.669 97.5134) rotate(-19.804) scale(53.6678 73.8069)">
<stop stop-color="#FCE5D0"/>
<stop offset="1" stop-color="#EFB7A4"/>
</radialGradient>
<radialGradient id="paint8_radial_494_349" cx="0" cy="0" r="1" gradientUnits="userSpaceOnUse" gradientTransform="translate(192.001 97.4177) rotate(-107.011) scale(53.7499 69.9649)">
<stop stop-color="#FCE5D0"/>
<stop offset="1" stop-color="#EFB7A4"/>
</radialGradient>
<linearGradient id="paint9_linear_494_349" x1="201.801" y1="46.9471" x2="181.151" y2="100.392" gradientUnits="userSpaceOnUse">
<stop stop-color="#F0BFAF"/>
<stop offset="1" stop-color="#F0BFAF" stop-opacity="0"/>
</linearGradient>
<linearGradient id="paint10_linear_494_349" x1="230.506" y1="62.2747" x2="211.399" y2="111.726" gradientUnits="userSpaceOnUse">
<stop stop-color="#F4B59C"/>
<stop offset="1" stop-color="#F1C4B2" stop-opacity="0"/>
</linearGradient>
<linearGradient id="paint11_linear_494_349" x1="196.103" y1="68.4412" x2="178.845" y2="98.4008" gradientUnits="userSpaceOnUse">
<stop stop-color="#F1BCA9"/>
<stop offset="1" stop-color="#F1BCA9" stop-opacity="0"/>
</linearGradient>
</defs>
</svg>
