<svg width="1440" height="371" viewBox="0 0 1440 371" fill="none" xmlns="http://www.w3.org/2000/svg">
<path d="M325.636 75.3278C325.636 91.2522 338.294 104.161 353.91 104.161C368.832 100.557 382.184 91.2522 382.184 75.3278C382.184 59.4034 369.525 46.4941 353.91 46.4941C338.294 46.4941 328.777 59.7096 325.636 75.3278Z" fill="#9B8270"/>
<path d="M325.636 75.3278C325.636 91.2522 338.294 104.161 353.91 104.161C368.832 100.557 382.184 91.2522 382.184 75.3278C382.184 59.4034 369.525 46.4941 353.91 46.4941C338.294 46.4941 328.777 59.7096 325.636 75.3278Z" stroke="#5F4B3D"/>
<path d="M359.058 91.3408C382.014 74.0272 367.837 55.0035 356.7 46.8544C396.794 58.0762 379.499 98.1541 361.417 100.158C351.852 104.967 336.102 108.654 359.058 91.3408Z" fill="#927763"/>
<ellipse cx="15.374" cy="16.5794" rx="15.374" ry="16.5794" transform="matrix(-1 0 0 1 368.047 58.3888)" fill="#C6A195"/>
<path d="M364.228 63.0988C376.684 74.3961 365.595 90.5106 357.256 92.9897L350.73 82.7192C364.87 76.3445 354.076 53.8908 364.228 63.0988Z" fill="#B59084"/>
<path d="M251.769 74.6073C251.769 90.5317 239.031 103.441 223.318 103.441C208.302 99.8368 194.867 90.5317 194.867 74.6073C194.867 58.6829 207.605 45.7737 223.318 45.7737C239.031 45.7737 248.607 58.9891 251.769 74.6073Z" fill="#9B8270"/>
<path d="M251.769 74.6073C251.769 90.5317 239.031 103.441 223.318 103.441C208.302 99.8368 194.867 90.5317 194.867 74.6073C194.867 58.6829 207.605 45.7737 223.318 45.7737C239.031 45.7737 248.607 58.9891 251.769 74.6073Z" stroke="#5F4B3D"/>
<path d="M226.481 90.9713C249.347 73.6454 235.275 55.0093 224.181 46.8544C261.77 51.6671 246.841 97.7894 228.83 99.7947C219.302 104.607 203.614 108.297 226.481 90.9713Z" fill="#927763"/>
<path d="M212.342 166.161C215.25 164.186 219.746 165.338 221.63 166.161L233.745 191.257C225.938 211.827 209.112 253.79 204.266 257.081C198.208 261.195 190.535 263.663 178.824 259.549C167.113 255.435 165.094 234.042 182.862 207.301C200.631 180.56 208.708 168.63 212.342 166.161Z" fill="#9B8270"/>
<rect width="139.956" height="71.3633" transform="matrix(-1 0 0 1 358.504 159.667)" fill="#9B8270"/>
<path d="M374.227 266.683C367.447 231.729 362.311 219.608 362.835 217.334H213.626C214.15 219.608 207.219 231.415 202.234 266.683C195.881 311.618 213.558 330.474 219.844 339.702C221.052 341.476 245.771 348.93 276.412 341.708C278.297 338.499 281.388 319.107 281.911 315.63C285.997 316.272 293.958 315.897 294.875 315.63C295.399 319.107 300.846 338.499 302.732 341.708C334.944 349.331 353.849 341.203 355.371 339.702C366.763 328.468 382.477 309.21 374.227 266.683Z" fill="#9B8270"/>
<path d="M232.685 247.79C232.685 295.775 257.686 309.602 288.526 309.602C319.366 309.602 344.367 297.402 344.367 247.79C344.367 213.652 319.366 185.978 288.526 185.978C257.686 185.978 232.685 213.652 232.685 247.79Z" fill="#BA9B87"/>
<path d="M375.431 274.638C370.635 244.986 362.583 218.453 361.666 208.42C361.141 201.598 358.755 200.394 356.553 200.394C353.799 200.394 354.979 210.427 361.666 250.559C368.352 290.691 353.406 317.98 345.147 325.204C335.51 333.632 313.602 338.327 299.836 332.308L303.062 340.856C333.741 348.481 352.226 340.856 354.193 339.652C356.159 338.448 382.118 315.974 375.431 274.638Z" fill="#927763"/>
<path d="M214.944 203.495C214.001 207.983 213.634 217.786 213.372 221.926L205.471 255.899C196.823 262.711 170.915 266.402 170.129 245.566C175.239 253.179 182.315 254.381 186.64 253.179C192.143 253.179 198.826 235.549 200.399 227.135C201.935 218.917 216.123 197.886 214.944 203.495Z" fill="#927763"/>
<path d="M274.923 341.353C277.775 340.797 279.78 327.105 280.043 323.376L279.255 322.577C277.023 330.034 268.857 341.992 214.659 330.168C215.92 332.405 219.517 338.29 220.961 339.755C247.745 347.345 264.682 343.35 274.923 341.353Z" fill="#927763"/>
<path d="M323.194 305.465C314.225 311.354 301.829 314.583 295.18 315.616C295.499 318.998 298.029 327.282 301.085 336.084C309.248 338.466 313.773 340.145 316.955 340.211C316.426 337.419 315.387 330.353 315.462 324.43C315.555 317.025 334.405 298.105 323.194 305.465Z" fill="#927763"/>
<path d="M249.755 308.397C259.149 313.278 274.804 315.238 281.458 315.608C281.458 318.936 279.618 327.256 277.426 336.131C269.598 339.237 262.28 341.308 259.149 341.678C259.41 338.905 259.775 331.916 259.149 326.147C258.366 318.936 238.014 302.295 249.755 308.397Z" fill="#927763"/>
<ellipse cx="17.3178" cy="17.3002" rx="17.3178" ry="17.3002" transform="matrix(-1 0 0 1 240.814 57.6685)" fill="#C6A195"/>
<path d="M235.519 62.4756C248.898 74.2807 236.988 91.1194 228.031 93.7099L221.021 82.9779C236.209 76.3166 224.615 52.8538 235.519 62.4756Z" fill="#B59084"/>
<path d="M196.566 128.339C193.69 157.598 211.801 176.874 288.537 181.292C356.689 179.685 382.28 157.598 377.35 128.339C367.733 71.2588 337.805 51.1798 288.537 51.1798C239.269 51.1798 214.95 63.2272 196.566 128.339Z" fill="#9B8270"/>
<path d="M196.566 128.339C193.69 157.598 211.801 176.874 288.537 181.292C356.689 179.685 382.28 157.598 377.35 128.339C367.733 71.2588 337.805 51.1798 288.537 51.1798C239.269 51.1798 214.95 63.2272 196.566 128.339Z" stroke="#7D6655"/>
<path d="M323.242 56.2256C323.331 56.25 323.422 56.2751 323.513 56.3009C327.304 57.4373 335.311 63.1676 343.292 77.8957C353.514 96.7567 358.625 130.716 358.625 139.294C358.625 147.32 356.659 155.346 345.258 164.175C334.189 172.746 279.997 185.444 217.488 166.583C257.195 185.042 313.021 180.227 340.934 173.405C368.846 166.583 375.923 148.926 377.102 138.492C378.282 128.058 371.598 101.974 360.59 82.7113C351.874 67.4579 332.423 58.8101 323.513 56.3009C323.42 56.2731 323.33 56.248 323.242 56.2256Z" fill="#927763"/>
<ellipse cx="20.1452" cy="18.021" rx="20.1452" ry="18.021" transform="matrix(-1 0 0 1 308.316 129.031)" fill="#C6AA95"/>
<path d="M276.864 139.427C276.864 141.877 282.164 142.49 288.703 142.49C295.242 142.49 300.543 141.877 300.543 139.427C300.543 136.976 295.242 136.363 288.703 136.363C282.164 136.363 276.864 136.976 276.864 139.427Z" fill="#5F4B3D"/>
<path d="M257.424 120.38C254.042 118.205 245.561 115.158 238.692 120.38" stroke="#5F4B3D" stroke-width="9" stroke-linecap="round"/>
<path d="M336.238 120.38C332.856 118.205 324.375 115.158 317.507 120.38" stroke="#5F4B3D" stroke-width="9" stroke-linecap="round"/>
<path d="M279.69 152.819C283.147 152.819 288.525 152.819 288.525 138.763" stroke="#5F4B3D" stroke-width="9" stroke-linecap="round"/>
<path d="M297.361 152.819C293.765 152.819 288.172 152.819 288.172 138.763" stroke="#5F4B3D" stroke-width="9" stroke-linecap="round"/>
<ellipse cx="16.9644" cy="15.3179" rx="16.9644" ry="15.3179" transform="matrix(-1 0 0 1 239.045 124.345)" fill="#CD9F99"/>
<ellipse cx="4.48382" cy="5.95953" rx="4.48382" ry="5.95953" transform="matrix(0.407101 0.913383 -0.907272 0.420545 319.141 101.829)" fill="#C6AA95"/>
<ellipse cx="4.48382" cy="5.95953" rx="4.48382" ry="5.95953" transform="matrix(-0.407101 0.913383 0.907272 0.420545 256.918 101.829)" fill="#C6AA95"/>
<ellipse cx="16.9644" cy="15.3179" rx="16.9644" ry="15.3179" transform="matrix(-1 0 0 1 367.34 124.345)" fill="#CD9F99"/>
<path d="M356.996 125.426C357.79 131.967 358.742 146.891 354.617 154.259C374.846 147.451 367.31 128.229 356.996 125.426Z" fill="#C58D85"/>
<path d="M209.634 95.1501C218.744 72.2459 237.515 60.8745 245.762 58.0518L243.406 54.4226C227.069 56.0356 212.121 81.0366 206.885 93.1339L209.634 95.1501Z" fill="#927763" fill-opacity="0.3"/>
<path d="M364.944 101.64C355.834 78.7356 337.063 67.3641 328.816 64.5414L331.173 60.9122C347.509 62.5252 362.457 87.5263 367.693 99.6236L364.944 101.64Z" fill="#927763" fill-opacity="0.3"/>
<path d="M218.021 166.259C275.718 191.251 337.301 172.422 360.88 159.884C365.346 163.157 372.917 170.966 362.624 173.028C352.331 175.09 349.059 177.641 345.22 179.815C313.756 188.832 247.46 180.305 218.021 166.259Z" fill="#927763"/>
<path d="M367.348 221.806C364.457 223.781 359.985 222.629 358.111 221.806L346.063 196.711C353.828 176.141 370.561 134.178 375.38 130.886C381.404 126.772 389.035 124.304 400.681 128.418C412.327 132.532 414.335 153.925 396.665 180.666C378.994 207.407 370.962 219.338 367.348 221.806Z" fill="#9B8270"/>
<path d="M395.648 164.935C390.605 176.479 368.395 212.181 359.246 210.507C353.842 209.518 356.432 227.73 362.557 227.73C365.425 227.73 368.976 221.666 397.734 178.379C423.919 138.963 403.694 127.036 393.794 125.874C383.552 124.671 374.885 130.283 372.522 133.088C368.32 140.57 364.83 146.945 373.982 140.486C395.254 125.473 401.951 150.506 395.648 164.935Z" fill="#927763"/>
<path d="M315.981 73.5633C315.643 75.6955 313.842 77.4417 310.78 78.7953C307.733 80.142 303.561 81.0411 298.744 81.5429C289.118 82.5458 277.047 81.9489 266.578 80.2909C257.71 78.8863 251.75 77.3749 247.815 75.7609C243.873 74.1442 242.045 72.4584 241.307 70.7594C240.568 69.0584 240.859 67.2125 241.495 65.1031C241.675 64.5041 241.885 63.8808 242.102 63.2382C242.629 61.6731 243.194 59.9935 243.467 58.2711C244.207 53.6009 246.142 49.9468 250.389 47.8244C254.683 45.6787 261.427 45.0512 271.897 46.7095C282.328 48.3616 293.77 52.8068 302.409 58.0242C306.729 60.6332 310.325 63.4213 312.74 66.1296C315.172 68.857 316.323 71.406 315.981 73.5633Z" fill="#003CA3" stroke="#003CA3"/>
<path d="M344.005 69.4304C343.592 72.3658 341.704 74.5658 338.535 76.1587C335.352 77.759 330.922 78.7182 325.559 79.1575C314.839 80.0355 300.568 78.8245 285.535 76.7117C270.544 74.6049 257.353 70.1589 248.146 64.6933C243.541 61.96 239.955 58.9847 237.633 55.94C235.313 52.8974 234.279 49.8187 234.696 46.8458C235.114 43.8728 236.957 41.1985 240.026 38.9132C243.097 36.6264 247.364 34.7549 252.544 33.3966C262.901 30.6806 276.807 30.0428 291.798 32.1497C306.748 34.2508 320.268 40.5315 329.823 47.8426C334.6 51.4982 338.371 55.4 340.834 59.1489C343.303 62.9075 344.423 66.4564 344.005 69.4304Z" fill="#397BEC" stroke="#397BEC"/>
<path d="M285.869 34.4154C285.772 35.812 284.681 37.1042 282.787 38.0177C280.908 38.924 278.332 39.4017 275.51 39.2044C272.688 39.0071 270.204 38.1756 268.469 37.0165C266.72 35.8483 265.82 34.4168 265.918 33.0203C266.016 31.6237 267.106 30.3314 269 29.418C270.88 28.5116 273.456 28.0339 276.277 28.2312C279.099 28.4285 281.583 29.2601 283.319 30.4192C285.067 31.5874 285.967 33.0188 285.869 34.4154Z" fill="#003CA3" stroke="#003CA3"/>
<path d="M526.447 156.059C521.57 153.398 516.874 150.321 511.781 148.169C502.799 144.377 493.582 141.139 484.451 137.705C482.727 137.055 480.942 136.556 478.659 135.566C477.697 135.103 477.264 135.067 476.83 135.026C476.83 135.026 476.871 135.005 476.884 135.014C476.677 134.263 476.668 133.32 476.201 132.765C470.77 126.36 466.84 119.093 464.47 111.109C460.67 98.3262 460.958 85.5734 465.681 72.759C471.51 73.0438 476.367 75.421 480.994 78.0777C502.487 90.4042 512.353 109.332 512.226 133.817C512.224 134.321 512.274 134.831 512.231 135.871C512.269 136.626 512.376 136.845 512.478 137.065L512.851 136.328C513.807 135.196 514.922 134.163 515.699 132.919C529.483 110.75 557.979 100.424 583.488 108.053C584.595 108.386 585.637 108.949 587.142 109.581C586.856 111.091 586.771 112.588 586.293 113.949C578.952 134.942 564.801 148.682 543.003 153.986C538.28 155.133 533.357 155.46 528.139 156.399C527.757 156.634 527.8 156.647 527.722 156.382C527.241 156.091 526.84 156.07 526.439 156.05M499.113 136.358C489.433 120.126 480.641 103.447 473.298 85.9853C473.267 87.2492 473.41 88.4332 473.809 89.5242C478.338 101.861 483.183 114.068 489.74 125.501C491.921 129.306 494.263 133.028 496.642 136.713C497.163 137.521 497.994 139.158 499.108 136.359M532.964 141.818C544.173 136.201 555.379 130.574 565.135 122.519C564.06 122.518 563.187 122.884 562.362 123.329C555.237 127.165 548.194 131.157 540.976 134.811C535.121 137.77 529.048 140.304 523.103 143.092C522.393 143.426 521.89 144.193 520.793 145.227C525.504 145.425 528.752 143.532 532.957 141.813M567.197 120.685L567.514 121.177C567.537 120.98 567.558 120.777 567.197 120.685Z" fill="#67A689"/>
<ellipse cx="452.5" cy="254" rx="129.5" ry="123" fill="url(#paint0_linear_1368_182)"/>
<path d="M547.338 299.938C532.301 308.501 512.588 296.546 509.077 279.602C506.535 267.334 502.026 254.374 494.128 244C490.712 239.512 487.273 235.432 483.904 231.743C469.467 215.936 467.202 188.498 483.309 174.396V174.396C491.759 166.997 503.848 164.419 513.415 170.303C548.689 191.996 559.939 234.297 557.944 282.909C557.652 290.039 553.538 296.407 547.338 299.938V299.938Z" fill="#FFD191"/>
<ellipse cx="720" cy="367" rx="720" ry="34" fill="#C2DE93"/>
<defs>
<linearGradient id="paint0_linear_1368_182" x1="452.5" y1="131" x2="452.5" y2="377" gradientUnits="userSpaceOnUse">
<stop stop-color="#FFCB83"/>
<stop offset="1" stop-color="#FFAF3F"/>
</linearGradient>
</defs>
</svg>
