<svg width="68" height="67" viewBox="0 0 68 67" fill="none" xmlns="http://www.w3.org/2000/svg">
<path d="M42.8686 23.2043C40.6998 23.1971 38.5507 23.6073 36.5444 24.4117C34.5382 25.2161 32.7141 26.3987 31.1765 27.892C29.6389 29.3852 28.4181 31.1598 27.5838 33.1141C26.7495 35.0685 26.3182 37.1642 26.3145 39.2814V55.5243C26.3145 56.1837 26.5828 56.816 27.0604 57.2823C27.538 57.7485 28.1858 58.0105 28.8612 58.0105H34.8038C35.4792 58.0105 36.127 57.7485 36.6046 57.2823C37.0823 56.816 37.3506 56.1837 37.3506 55.5243V39.2814C37.35 38.5284 37.512 37.7837 37.8261 37.0959C38.1401 36.4081 38.5991 35.7926 39.1731 35.2896C39.7472 34.7866 40.4234 34.4073 41.1576 34.1765C41.8919 33.9457 42.6677 33.8685 43.4346 33.95C44.8099 34.1191 46.0738 34.7751 46.9866 35.7934C47.8994 36.8117 48.3976 38.1217 48.3867 39.4748V55.5243C48.3867 56.1837 48.655 56.816 49.1326 57.2823C49.6103 57.7485 50.258 58.0105 50.9335 58.0105H56.876C57.5515 58.0105 58.1993 57.7485 58.6769 57.2823C59.1545 56.816 59.4228 56.1837 59.4228 55.5243V39.2814C59.4191 37.1642 58.9878 35.0685 58.1535 33.1141C57.3192 31.1598 56.0984 29.3852 54.5608 27.892C53.0232 26.3987 51.1991 25.2161 49.1928 24.4117C47.1866 23.6073 45.0375 23.1971 42.8686 23.2043Z" fill="#431D01"/>
<path d="M18.6755 25.6903H11.0351C9.62852 25.6903 8.48828 26.8034 8.48828 28.1765V55.5241C8.48828 56.8972 9.62852 58.0103 11.0351 58.0103H18.6755C20.082 58.0103 21.2223 56.8972 21.2223 55.5241V28.1765C21.2223 26.8034 20.082 25.6903 18.6755 25.6903Z" fill="#431D01"/>
<path d="M14.8553 20.7179C18.3717 20.7179 21.2223 17.9352 21.2223 14.5025C21.2223 11.0698 18.3717 8.28711 14.8553 8.28711C11.3389 8.28711 8.48828 11.0698 8.48828 14.5025C8.48828 17.9352 11.3389 20.7179 14.8553 20.7179Z" fill="#431D01"/>
</svg>
